<svg width="385" height="155" viewBox="0 0 385 155" fill="none" xmlns="http://www.w3.org/2000/svg">
<g clip-path="url(#clip0_9214_24172)">
<path d="M0 0H384.828V137.897C384.828 147.343 377.17 155 367.724 155H17.1035C7.6575 155 0 147.343 0 137.897V0Z" fill="url(#paint0_radial_9214_24172)"/>
<mask id="mask0_9214_24172" style="mask-type:alpha" maskUnits="userSpaceOnUse" x="109" y="117" width="223" height="20">
<path d="M167.121 120.74L109.088 136.448L331.548 136.448C234.806 109.745 189.152 117.641 167.121 120.74Z" fill="#6A6A6A"/>
</mask>
<g mask="url(#mask0_9214_24172)">
<path d="M167.121 120.74L109.088 136.448L331.548 136.448C234.806 109.745 189.152 117.641 167.121 120.74Z" fill="#347357"/>
<rect x="152.449" y="112.915" width="4.20231" height="36.5395" transform="rotate(36.7611 152.449 112.915)" fill="#99B9AB"/>
<rect x="161.564" y="110.765" width="4.20231" height="36.5395" transform="rotate(36.7611 161.564 110.765)" fill="#99B9AB"/>
<rect x="170.678" y="109.691" width="4.20231" height="36.5395" transform="rotate(36.7611 170.678 109.691)" fill="#99B9AB"/>
<rect x="179.792" y="109.691" width="4.20231" height="36.5395" transform="rotate(36.7611 179.792 109.691)" fill="#99B9AB"/>
<rect x="188.907" y="109.691" width="4.20231" height="36.5395" transform="rotate(36.7611 188.907 109.691)" fill="#99B9AB"/>
<rect x="196.512" y="110.765" width="4.20231" height="36.5395" transform="rotate(36.7611 196.512 110.765)" fill="#99B9AB"/>
<rect x="206.184" y="109.691" width="4.20231" height="36.5395" transform="rotate(36.7611 206.184 109.691)" fill="#99B9AB"/>
<rect x="215.856" y="108.616" width="4.20231" height="36.5395" transform="rotate(36.7611 215.856 108.616)" fill="#99B9AB"/>
<rect x="225.365" y="108.616" width="4.20231" height="36.5395" transform="rotate(36.7611 225.365 108.616)" fill="#99B9AB"/>
<rect x="234.479" y="109.691" width="4.20231" height="36.5395" transform="rotate(36.7611 234.479 109.691)" fill="#99B9AB"/>
<rect x="243.593" y="109.691" width="4.20231" height="36.5395" transform="rotate(36.7611 243.593 109.691)" fill="#99B9AB"/>
<rect x="252.708" y="110.765" width="4.20231" height="36.5395" transform="rotate(36.7611 252.708 110.765)" fill="#99B9AB"/>
<rect x="261.822" y="112.915" width="4.20231" height="36.5395" transform="rotate(36.7611 261.822 112.915)" fill="#99B9AB"/>
<rect x="270.937" y="111.84" width="4.20231" height="36.5395" transform="rotate(36.7611 270.937 111.84)" fill="#99B9AB"/>
<rect x="280.051" y="111.84" width="4.20231" height="36.5395" transform="rotate(36.7611 280.051 111.84)" fill="#99B9AB"/>
<rect x="288.935" y="112.915" width="4.20231" height="36.5395" transform="rotate(36.7611 288.935 112.915)" fill="#99B9AB"/>
<rect x="296.458" y="115.064" width="4.20231" height="36.5395" transform="rotate(36.7611 296.458 115.064)" fill="#99B9AB"/>
</g>
<path fill-rule="evenodd" clip-rule="evenodd" d="M81.1473 184.915H8.253C8.14861 184.918 8.0439 184.919 7.93889 184.919C7.83387 184.919 7.72916 184.918 7.62478 184.915H-104.969C-84.441 184.81 -41.4604 182.62 -11.4832 174.326C-10.4095 172.896 -8.69987 171.971 -6.77425 171.971C-5.93705 171.971 -5.14068 172.146 -4.41965 172.461C-4.36659 165.681 1.14619 160.201 7.93889 160.201C11.5296 160.201 14.7626 161.732 17.0206 164.178C18.3102 162.477 20.3525 161.378 22.6514 161.378C22.7497 161.378 22.8476 161.38 22.9449 161.384C23.9375 156.484 27.3656 152.467 31.9111 150.652C34.7087 141.856 42.9432 135.483 52.666 135.483C63.4766 135.483 72.4472 143.361 74.1502 153.689C76.3638 152.584 78.8611 151.962 81.5037 151.962C90.2098 151.962 97.339 158.713 97.9411 167.266L97.9821 167.264V168.365C97.9822 168.39 97.9823 168.415 97.9823 168.44C97.9823 168.465 97.9822 168.49 97.9821 168.516V184.915H81.86C81.7415 184.918 81.6228 184.919 81.5037 184.919C81.3846 184.919 81.2658 184.918 81.1473 184.915ZM-108 184.915H-104.969C-106.043 184.921 -107.054 184.92 -108 184.915Z" fill="white" fill-opacity="0.4"/>
<path fill-rule="evenodd" clip-rule="evenodd" d="M30.5761 69.9239H90.7886C90.8747 69.926 90.9611 69.9271 91.0477 69.9271C91.1343 69.9271 91.2207 69.926 91.3068 69.9239H184.32C167.362 69.8369 131.856 68.0281 107.092 61.1763C106.205 59.9953 104.793 59.2314 103.202 59.2314C102.51 59.2314 101.853 59.3758 101.257 59.6362C101.213 54.035 96.6591 49.508 91.0477 49.508C88.0815 49.508 85.4107 50.7729 83.5454 52.7928C82.4801 51.3878 80.7929 50.4804 78.8937 50.4804C78.8125 50.4804 78.7317 50.4821 78.6513 50.4853C77.8313 46.4372 74.9995 43.119 71.2445 41.6195C68.9336 34.3531 62.1311 29.0889 54.0991 29.0889C45.1686 29.0889 37.7581 35.5968 36.3513 44.1288C34.5227 43.2154 32.4597 42.7016 30.2767 42.7016C23.0848 42.7016 17.1954 48.2789 16.698 55.3443L16.664 55.3421V56.3143V69.9239H29.9773C30.0769 69.926 30.1767 69.9271 30.2767 69.9271C30.3768 69.9271 30.4766 69.926 30.5761 69.9239ZM186.823 69.9239H184.32C185.206 69.9284 186.042 69.9282 186.823 69.9239Z" fill="white" fill-opacity="0.4"/>
<path fill-rule="evenodd" clip-rule="evenodd" d="M277.696 91.1608H240.092C240.029 91.1626 239.965 91.1636 239.902 91.1636C239.838 91.1636 239.775 91.1626 239.711 91.1608H181.582C192.186 91.1064 214.386 89.9755 229.87 85.6912C230.425 84.953 231.308 84.4754 232.302 84.4754C232.735 84.4754 233.146 84.5657 233.518 84.7284C233.546 81.2265 236.393 78.3963 239.902 78.3963C241.756 78.3963 243.426 79.1872 244.593 80.4502C245.259 79.5715 246.314 79.0039 247.501 79.0039C247.552 79.0039 247.602 79.005 247.653 79.007C248.165 76.4757 249.936 74.4009 252.284 73.4634C253.729 68.9201 257.982 65.6287 263.004 65.6287C268.588 65.6287 273.222 69.6977 274.102 75.0324C275.245 74.4614 276.535 74.1401 277.9 74.1401C282.396 74.1401 286.079 77.6272 286.39 82.0448L286.411 82.0434L286.411 82.6516L286.411 91.1608H278.103C278.035 91.1624 277.968 91.1632 277.9 91.1632C277.832 91.1632 277.764 91.1624 277.696 91.1608ZM180.017 91.1608H181.582C181.028 91.1636 180.505 91.1635 180.017 91.1608Z" fill="white" fill-opacity="0.4"/>
<mask id="path-24-inside-1_9214_24172" fill="white">
<path d="M0.543701 135.483H387.432V148.38H0.543701V135.483Z"/>
</mask>
<path d="M0.543701 135.483H387.432V148.38H0.543701V135.483Z" fill="#568A73"/>
<path d="M387.432 145.156H0.543701V151.604H387.432V145.156Z" fill="#1A392B" mask="url(#path-24-inside-1_9214_24172)"/>
<path d="M387.432 119.775V135.483H275.664C341.424 108.78 377.576 113.885 387.432 119.775Z" fill="#78A28F"/>
<path d="M269.216 98.1623H281.086V135.302H269.216V98.1623ZM283.235 135.302V98.1623H298.61V135.302H283.235ZM300.759 135.302V98.1623H312.791V135.302H300.759ZM311.271 96.013H299.684H282.161H270.736L291.003 75.7457L311.271 96.013Z" fill="#BBD0C7" fill-opacity="0.7" stroke="#2B6048" stroke-width="2.14938"/>
<path d="M364.651 96.013H341.018L320.306 75.3005H343.938L364.651 96.013ZM317.266 75.3005L337.979 96.013H314.346L293.634 75.3005H317.266Z" fill="#BBD0C7" fill-opacity="0.7"/>
<path d="M364.651 96.013H341.018L320.306 75.3005H343.938L364.651 96.013ZM317.266 75.3005L337.979 96.013H314.346L293.634 75.3005H317.266Z" fill="white" fill-opacity="0.5"/>
<path d="M364.651 96.013H341.018L320.306 75.3005H343.938L364.651 96.013ZM317.266 75.3005L337.979 96.013H314.346L293.634 75.3005H317.266Z" stroke="#2B6048" stroke-width="2.14938"/>
<path d="M339.499 98.1987V135.303H315.012V98.1987H339.499ZM341.648 135.303V98.1987H366.135V135.303H341.648Z" fill="#BBD0C7" fill-opacity="0.7"/>
<path d="M339.499 98.1987V135.303H315.012V98.1987H339.499ZM341.648 135.303V98.1987H366.135V135.303H341.648Z" fill="white" fill-opacity="0.5"/>
<path d="M339.499 98.1987V135.303H315.012V98.1987H339.499ZM341.648 135.303V98.1987H366.135V135.303H341.648Z" stroke="#2B6048" stroke-width="2.14938"/>
<path d="M0.543701 119.775V135.483H164.971C68.2287 108.78 15.0435 113.885 0.543701 119.775Z" fill="#347357"/>
<rect x="0.543701" y="148.38" width="386.888" height="48.3611" fill="#244E3B"/>
<path d="M152.365 144.869C155.643 136.822 151.777 127.641 143.73 124.363L135.448 120.989C131.601 119.422 127.211 121.27 125.643 125.118L122.684 132.383C119.33 140.617 123.286 150.012 131.52 153.366L131.859 153.504C139.906 156.782 149.087 152.916 152.365 144.869V144.869Z" fill="#BBD0C7"/>
<rect width="38.0524" height="55.6151" rx="10.7469" transform="matrix(-0.92611 -0.377255 -0.377255 0.92611 182.646 105.448)" fill="#E4EDE9"/>
<path d="M180.619 110.425C181.738 107.676 180.418 104.541 177.669 103.421L152.382 93.12C149.633 92.0004 146.498 93.3208 145.378 96.0692L144.092 99.2253L179.333 113.581L180.619 110.425Z" fill="#444956"/>
<path d="M164.978 148.822L129.737 134.466L128.451 137.622C127.332 140.371 128.652 143.506 131.401 144.626L156.688 154.927C159.437 156.046 162.572 154.726 163.692 151.978L164.978 148.822Z" fill="#444956"/>
<g clip-path="url(#clip1_9214_24172)">
<path d="M150.214 134.828L149.26 133.886C149.034 133.663 148.985 133.316 149.139 133.039L152.435 127.125C151.219 125.764 151.255 123.665 152.554 122.346C153.149 121.742 153.928 121.384 154.749 121.316C154.722 120.378 155.075 119.456 155.754 118.767C156.409 118.101 157.283 117.732 158.216 117.725C158.906 117.72 159.568 117.915 160.133 118.284C160.232 118.176 160.338 118.073 160.449 117.977C161.176 117.344 162.112 117.008 163.083 117.032C164.053 117.055 164.971 117.435 165.666 118.102C166.422 118.826 166.846 119.8 166.861 120.847C166.876 121.895 166.48 122.883 165.744 123.63C165.712 123.663 165.679 123.695 165.645 123.727C166.543 125.075 166.406 126.918 165.225 128.117C164.546 128.807 163.629 129.172 162.692 129.159C162.636 129.981 162.289 130.766 161.695 131.37C161.04 132.035 160.165 132.405 159.233 132.411C158.375 132.417 157.563 132.115 156.923 131.556L151.064 134.937L150.214 134.828Z" fill="#244E3B"/>
<path d="M148.714 133.98L146.885 127.468C146.037 127.42 145.245 127.068 144.635 126.465C143.973 125.809 143.606 124.933 143.602 124C143.598 123.152 143.899 122.349 144.433 121.721C143.753 121.076 143.353 120.174 143.349 119.206C143.342 117.523 144.532 116.108 146.117 115.772C146.115 115.726 146.114 115.679 146.114 115.633C146.109 114.585 146.516 113.601 147.259 112.862C148.001 112.124 148.986 111.723 150.032 111.733C150.995 111.742 151.917 112.112 152.628 112.773C153.339 113.435 153.774 114.328 153.852 115.289C153.864 115.436 153.867 115.583 153.863 115.729C154.525 115.861 155.134 116.184 155.625 116.67C156.288 117.326 156.655 118.202 156.658 119.135C156.663 120.103 156.27 121.009 155.595 121.661C156.135 122.283 156.442 123.084 156.446 123.931C156.454 125.782 155.013 127.31 153.192 127.433L151.417 133.967C151.334 134.273 151.057 134.486 150.739 134.488L149.398 134.495L148.714 133.98Z" fill="#347357"/>
<path d="M162.422 122.316C163.094 120.666 162.476 118.807 161.041 117.866C161.067 117.81 161.091 117.754 161.114 117.698C161.53 116.676 161.52 115.556 161.084 114.544C160.759 113.786 160.225 113.16 159.546 112.726L158.467 113.23L158.203 112.172C157.434 112.007 156.629 112.068 155.881 112.357C154.928 112.724 154.153 113.426 153.699 114.332C153.624 114.483 153.558 114.637 153.502 114.795C151.818 114.465 150.077 115.363 149.405 117.013C149.016 117.968 149.049 119.021 149.467 119.929C148.68 120.322 148.051 120.99 147.71 121.828C146.972 123.639 147.79 125.704 149.536 126.527L148.689 133.705C148.652 134.021 148.83 134.322 149.124 134.442L149.13 134.444L150.139 133.839L150.438 134.977L150.444 134.98C150.738 135.1 151.076 135.008 151.27 134.757L155.68 129.03C157.505 129.661 159.532 128.756 160.27 126.944C160.611 126.106 160.629 125.19 160.34 124.358C161.274 124 162.033 123.271 162.422 122.316Z" fill="#78A28F"/>
<path d="M162.422 122.315C163.094 120.665 162.476 118.806 161.041 117.865C161.067 117.81 161.091 117.754 161.114 117.697C161.531 116.676 161.52 115.555 161.084 114.543C160.759 113.785 160.225 113.16 159.547 112.725L158.55 113.19L150.14 133.838L150.14 133.838L150.439 134.977L150.444 134.979C150.739 135.099 151.077 135.008 151.27 134.756L155.68 129.029C157.505 129.66 159.532 128.755 160.27 126.944C160.611 126.106 160.629 125.189 160.34 124.358C161.274 124 162.033 123.27 162.422 122.315Z" fill="#347357"/>
<path d="M156.702 123.661C156.55 123.302 156.136 123.133 155.776 123.285L155.082 123.578L156.105 121.066L158.104 120.222C158.463 120.07 158.632 119.656 158.48 119.296C158.328 118.937 157.914 118.769 157.554 118.92L156.86 119.214L159.511 112.704C159.295 112.569 159.065 112.452 158.822 112.358C158.62 112.279 158.412 112.218 158.202 112.173L155.551 118.681L155.259 117.986C155.108 117.626 154.694 117.457 154.334 117.608C153.975 117.759 153.806 118.173 153.957 118.533L154.797 120.533L153.773 123.045L153.481 122.35C153.33 121.991 152.916 121.821 152.557 121.973C152.197 122.124 152.028 122.538 152.179 122.897L153.019 124.898L149.13 134.444L150.438 134.977L154.327 125.431L156.326 124.587C156.685 124.435 156.854 124.021 156.702 123.661Z" fill="#347357"/>
<path d="M158.104 120.222C158.463 120.07 158.632 119.656 158.48 119.296C158.328 118.937 157.914 118.769 157.554 118.92L156.86 119.214L159.511 112.704C159.312 112.58 159.101 112.472 158.88 112.382L149.784 134.711L150.438 134.977L154.327 125.431L156.326 124.587C156.685 124.435 156.854 124.021 156.702 123.661C156.55 123.302 156.136 123.133 155.776 123.285L155.082 123.579L156.105 121.066L158.104 120.222Z" fill="#244E3B"/>
</g>
<rect width="22.6851" height="10.9767" rx="5.48833" transform="matrix(-0.92611 -0.377255 -0.377255 0.92611 149.49 126.709)" fill="#BBD0C7"/>
<g filter="url(#filter0_ddd_9214_24172)">
<circle cx="366.67" cy="19.3299" r="26.3299" fill="white"/>
</g>
<g clip-path="url(#clip2_9214_24172)">
<path d="M309.428 63.166C309.078 63.166 308.729 63.0496 308.496 62.7003C308.031 62.2346 308.147 61.4197 308.613 61.0704C313.852 56.7627 321.303 56.7627 326.542 61.0704C327.008 61.5361 327.124 62.2346 326.659 62.7003C326.193 63.166 325.494 63.2825 325.029 62.8168C320.721 59.2076 314.434 59.2076 310.126 62.8168C310.01 63.166 309.661 63.166 309.428 63.166Z" fill="#347357"/>
<path d="M329.918 59.0911C329.686 59.0911 329.336 58.9747 329.104 58.7418C322.467 52.9206 312.571 52.9206 306.051 58.7418C305.586 59.2075 304.887 59.0911 304.421 58.6254C303.956 58.1597 304.072 57.4612 304.538 56.9955C311.989 50.3593 323.282 50.3593 330.733 56.9955C331.199 57.4612 331.316 58.1597 330.85 58.6254C330.501 58.9747 330.268 59.0911 329.918 59.0911Z" fill="#347357"/>
<path d="M321.652 67.3569C321.419 67.3569 321.186 67.2405 320.954 67.1241C318.974 65.727 316.18 65.727 314.201 67.1241C313.619 67.4733 312.92 67.3569 312.571 66.8912C312.222 66.3091 312.338 65.6105 312.804 65.2613C315.598 63.2821 319.44 63.2821 322.234 65.2613C322.816 65.6105 322.933 66.3091 322.467 66.8912C322.351 67.2405 322.001 67.3569 321.652 67.3569Z" fill="#347357"/>
</g>
<g clip-path="url(#clip3_9214_24172)">
<path d="M142.384 88.7991C142.152 88.8523 141.902 88.8282 141.694 88.6319C141.314 88.3938 141.268 87.8352 141.523 87.5324C144.344 83.8755 149.289 82.7405 153.423 84.8013C153.803 85.0394 153.986 85.4853 153.748 85.8653C153.51 86.2453 153.064 86.429 152.684 86.1908C149.275 84.4518 145.103 85.4094 142.794 88.4609C142.77 88.7104 142.538 88.7636 142.384 88.7991Z" fill="#347357"/>
<path d="M155.362 82.9736C155.207 83.0091 154.958 82.985 154.768 82.866C149.477 80.0135 142.909 81.521 139.469 86.3774C139.231 86.7575 138.749 86.7866 138.369 86.5485C137.989 86.3103 137.96 85.829 138.198 85.449C142.133 79.9098 149.627 78.1895 155.583 81.4587C155.963 81.6968 156.147 82.1427 155.909 82.5227C155.73 82.8077 155.593 82.9204 155.362 82.9736Z" fill="#347357"/>
<path d="M151.135 89.7188C150.98 89.7543 150.808 89.7125 150.636 89.6707C149.109 89.045 147.255 89.4706 146.154 90.6993C145.821 91.0198 145.34 91.0489 145.037 90.793C144.717 90.4599 144.688 89.9786 144.943 89.6758C146.496 87.9367 149.046 87.3514 151.202 88.2393C151.642 88.3824 151.825 88.8283 151.605 89.2856C151.581 89.5351 151.367 89.6656 151.135 89.7188Z" fill="#347357"/>
</g>
<path d="M27.3165 102.928C27.3165 93.8454 30.9244 85.1352 37.3465 78.7131C43.7686 72.291 52.4788 68.6831 61.561 68.6831C70.6433 68.6831 79.3535 72.291 85.7756 78.7131C92.1977 85.1352 95.8056 93.8454 95.8056 102.928C95.8056 112.01 92.1977 120.72 85.7756 127.142C79.3535 133.564 70.6433 137.172 61.561 137.172C52.4788 137.172 43.7686 133.564 37.3465 127.142C30.9244 120.72 27.3165 112.01 27.3165 102.928ZM60.358 146.171C60.6144 146.132 60.873 146.111 61.1322 146.106H61.9898C62.2519 146.106 62.5099 146.127 62.7641 146.171L106.21 153.812L106.436 153.86C114.441 155.706 123.04 160.786 124.714 170.654L124.738 170.827L125.417 176.05V176.062C126.989 188.027 117.502 196.728 106.299 196.728C106.052 196.723 105.806 196.704 105.561 196.668H16.8228C5.62032 196.668 -3.87286 187.961 -2.29463 175.991L-1.6157 170.815L-1.58592 170.637C0.08164 160.947 8.75296 155.581 16.7394 153.848L16.9121 153.812L60.358 146.171Z" fill="#BBD0C7"/>
<path d="M69.4896 100.501C69.4896 119.425 81.7271 135.745 61.1681 137.213C42.2441 137.213 25.4347 121.383 25.4347 102.459C25.4347 83.5345 42.2441 68.1936 61.1681 68.1936C80.0922 68.1936 111.097 81.4101 69.4896 100.501Z" fill="#EAF6F1"/>
<path d="M81.2376 149.94H42.0776C34.0825 151.246 19.7565 153.073 16.6237 153.856C12.7077 154.835 -1.48791 158.262 -2.46691 175.884C-3.25011 189.981 7.6494 195.79 13.1971 196.932C41.9144 197.095 100.915 197.324 107.181 196.932C115.013 196.443 128.719 189.59 125.292 172.947C122.551 159.632 111.423 154.672 106.202 153.856L81.2376 149.94Z" fill="#78A28F" stroke="#78A28F" stroke-width="1.07469"/>
</g>
<defs>
<filter id="filter0_ddd_9214_24172" x="211.377" y="-135.963" width="310.585" height="310.586" filterUnits="userSpaceOnUse" color-interpolation-filters="sRGB">
<feFlood flood-opacity="0" result="BackgroundImageFix"/>
<feColorMatrix in="SourceAlpha" type="matrix" values="0 0 0 0 0 0 0 0 0 0 0 0 0 0 0 0 0 0 127 0" result="hardAlpha"/>
<feOffset/>
<feGaussianBlur stdDeviation="21.4938"/>
<feColorMatrix type="matrix" values="0 0 0 0 1 0 0 0 0 1 0 0 0 0 1 0 0 0 0.8 0"/>
<feBlend mode="normal" in2="BackgroundImageFix" result="effect1_dropShadow_9214_24172"/>
<feColorMatrix in="SourceAlpha" type="matrix" values="0 0 0 0 0 0 0 0 0 0 0 0 0 0 0 0 0 0 127 0" result="hardAlpha"/>
<feOffset/>
<feGaussianBlur stdDeviation="42.9876"/>
<feColorMatrix type="matrix" values="0 0 0 0 1 0 0 0 0 1 0 0 0 0 1 0 0 0 0.6 0"/>
<feBlend mode="normal" in2="effect1_dropShadow_9214_24172" result="effect2_dropShadow_9214_24172"/>
<feColorMatrix in="SourceAlpha" type="matrix" values="0 0 0 0 0 0 0 0 0 0 0 0 0 0 0 0 0 0 127 0" result="hardAlpha"/>
<feOffset/>
<feGaussianBlur stdDeviation="64.4814"/>
<feColorMatrix type="matrix" values="0 0 0 0 1 0 0 0 0 1 0 0 0 0 1 0 0 0 0.24 0"/>
<feBlend mode="normal" in2="effect2_dropShadow_9214_24172" result="effect3_dropShadow_9214_24172"/>
<feBlend mode="normal" in="SourceGraphic" in2="effect3_dropShadow_9214_24172" result="shape"/>
</filter>
<radialGradient id="paint0_radial_9214_24172" cx="0" cy="0" r="1" gradientUnits="userSpaceOnUse" gradientTransform="translate(63.069 94.7222) rotate(-9.35394) scale(244.3 489.106)">
<stop stop-color="#C3E8D8"/>
<stop offset="1" stop-color="#E2F3EC"/>
</radialGradient>
<clipPath id="clip0_9214_24172">
<path d="M0 0H384.828V137.897C384.828 147.343 377.17 155 367.724 155H17.1035C7.6575 155 0 147.343 0 137.897V0Z" fill="white"/>
</clipPath>
<clipPath id="clip1_9214_24172">
<rect width="24.1486" height="24.1486" fill="white" transform="translate(147.707 107.81) rotate(22.1637)"/>
</clipPath>
<clipPath id="clip2_9214_24172">
<rect width="27.9419" height="27.9419" fill="white" transform="translate(303.606 46.2839)"/>
</clipPath>
<clipPath id="clip3_9214_24172">
<rect width="19.0262" height="19.0262" fill="white" transform="translate(135.949 78.4822) rotate(-12.9269)"/>
</clipPath>
</defs>
</svg>
