<svg width="341" height="147" viewBox="0 0 341 147" fill="none" xmlns="http://www.w3.org/2000/svg">
<g filter="url(#filter0_dd_7250_19222)">
<g clip-path="url(#clip0_7250_19222)">
<rect x="6" y="2" width="329" height="135" rx="8" fill="url(#paint0_linear_7250_19222)"/>
<g filter="url(#filter1_f_7250_19222)">
<ellipse cx="170.5" cy="138" rx="178.5" ry="102" fill="#FDFFED"/>
</g>
<path d="M12.7836 2.51002C12.8406 2.23057 13.0345 2.00244 13.2854 1.89408L15.4241 0.964474C15.7264 0.833302 16.0743 0.884631 16.3252 1.08424C16.5819 1.29526 16.6959 1.62604 16.6275 1.94541C16.6275 1.95682 16.3594 3.35408 17.1408 4.52322C17.7054 5.36158 18.6977 5.90908 20.095 6.15432C23.8134 6.81018 24.2297 9.2226 24.5263 10.9792C24.8115 12.6445 25.0111 13.3916 26.6992 13.5513C28.5755 13.7281 29.9557 14.4296 30.8054 15.6386C32.1685 17.5663 31.5697 20.0357 31.5468 20.1384C31.4841 20.4007 31.2959 20.6174 31.045 20.7258L28.9063 21.6554C28.7922 21.7067 28.6725 21.7296 28.5584 21.7296C28.4262 21.7298 28.2957 21.7 28.1767 21.6424C28.0577 21.5849 27.9533 21.501 27.8715 21.3972C27.7896 21.2934 27.7325 21.1723 27.7042 21.0432C27.676 20.914 27.6775 20.7801 27.7086 20.6517C27.7086 20.6346 28.1307 18.8381 27.2296 17.572C26.6821 16.8078 25.7297 16.3515 24.3894 16.226C21.2926 15.9295 20.9276 13.7794 20.6596 12.211C20.3744 10.5571 20.1577 9.25112 17.6483 8.81198C15.7663 8.48119 14.3861 7.68275 13.5478 6.43377C12.3501 4.63158 12.7608 2.59557 12.7836 2.51002Z" fill="#ED6C30"/>
<path d="M5.99688 27.3471C7.3086 26.2692 7.05767 25.5449 6.36759 23.9993C5.63189 22.3739 4.62813 20.1383 7.35423 17.5206C8.36938 16.5453 8.88837 15.5359 8.89407 14.5321C8.90548 13.1121 7.89032 12.0969 7.88462 12.0855C7.65079 11.8574 7.56524 11.5209 7.65649 11.2072C7.75345 10.8935 8.01009 10.6597 8.33516 10.6027L10.6278 10.1807C10.9016 10.1293 11.1867 10.2149 11.392 10.4088C11.4491 10.4715 12.9376 11.9315 12.9319 14.093C12.9319 15.5929 12.2247 17.0244 10.8559 18.3532C9.01954 20.1155 9.56134 21.3246 10.2514 22.8587C10.9016 24.313 11.797 26.2977 9.39595 28.271C8.35228 29.1264 7.81047 30.0332 7.78766 30.9742C7.74204 32.5312 9.09368 33.7859 9.10508 33.7916C9.35602 34.014 9.44728 34.3619 9.36173 34.6756C9.27048 35.0007 9.00813 35.2402 8.67735 35.2972L6.3847 35.7192C6.33337 35.7307 6.28204 35.7364 6.23071 35.7364C6.0197 35.7364 5.80868 35.6565 5.64329 35.5139C5.56344 35.4398 3.68712 33.7289 3.74415 31.3678C3.78978 29.8964 4.54259 28.5447 5.99688 27.3471ZM18.4639 27.0049C17.1978 24.8092 17.8936 22.8587 17.9221 22.7732C18.0077 22.545 18.1845 22.3568 18.4183 22.2713L20.46 21.45C20.7737 21.3246 21.1387 21.393 21.3839 21.6325C21.6291 21.8664 21.7204 22.2314 21.6063 22.5564C21.5892 22.6078 21.1729 23.8567 22.017 25.311C22.4048 25.9726 22.8952 26.2178 23.5226 26.5258C24.2355 26.8737 25.1252 27.3071 25.6613 28.4592C26.1631 29.5314 26.032 30.5693 25.9236 31.4875C25.8209 32.3259 25.7354 33.0445 26.0776 33.7574C26.4369 34.5216 27.0528 34.9037 27.7657 35.3485C28.4729 35.7877 29.2713 36.2839 29.8474 37.2021C30.3378 37.9834 30.3949 38.8731 30.4519 39.7399C30.5488 41.1486 30.6629 42.044 31.8891 42.6714C32.1913 42.8253 32.3795 43.1447 32.3681 43.4869C32.351 43.8291 32.14 44.1314 31.8206 44.2568L29.7789 45.0781C29.6763 45.1237 29.5622 45.1408 29.4538 45.1408C29.317 45.1408 29.1858 45.1066 29.0603 45.0439C26.8931 43.9431 26.762 42.0554 26.6764 40.6753C26.6308 39.9966 26.5909 39.3578 26.3285 38.9529C25.9692 38.3712 25.4217 38.0404 24.8001 37.6469C23.9731 37.1279 23.0435 36.5519 22.4618 35.3257C21.9029 34.1509 22.0341 33.0559 22.1595 32.0921C22.2565 31.3107 22.3363 30.6321 22.0455 30.0161C21.7831 29.4458 21.4124 29.2462 20.7224 28.9097C19.9981 28.5561 19.1084 28.1284 18.4639 27.0049ZM43.398 17.224C42.4284 17.1898 41.3277 17.1442 40.2156 16.3685C39.1491 15.6214 38.7271 14.612 38.345 13.7109C38.037 12.9809 37.7747 12.3535 37.2158 11.96C36.6455 11.5608 36.1151 11.6178 35.522 11.6578C35.2881 11.6749 35.0486 11.6863 34.8148 11.6863C34.2958 11.6863 33.5088 11.6292 32.6248 11.116C30.4348 9.84417 30.0755 7.79675 30.0584 7.7112C30.0184 7.47167 30.0869 7.22073 30.2352 7.02682L31.6039 5.29878C31.8149 5.03073 32.1742 4.91096 32.505 4.99651C32.8358 5.08206 33.0867 5.35581 33.1438 5.698C33.1495 5.7094 33.4004 7.02682 34.8661 7.87659C35.271 8.11612 35.6531 8.21308 36.1778 8.21308C36.3774 8.21308 36.577 8.20167 36.7766 8.19026C37.0048 8.17315 37.2272 8.16175 37.4553 8.16175C38.0256 8.16175 38.7784 8.23589 39.5883 8.8119C40.5578 9.49628 40.957 10.4601 41.3163 11.3156C41.6414 12.0912 41.9266 12.7585 42.5767 13.2147C43.2668 13.6938 43.9911 13.7223 44.8295 13.7565C45.6564 13.7907 46.5974 13.825 47.5556 14.3382C48.3654 14.7774 48.8616 15.5188 49.3349 16.2374C50.0877 17.378 50.6124 18.0738 51.8671 18.0738L52.0382 18.0681C52.369 18.051 52.6998 18.2335 52.8595 18.5414C53.0134 18.8437 52.9792 19.2144 52.7625 19.4824L51.3938 21.2105C51.2341 21.4044 51.0002 21.5242 50.755 21.5356C50.6695 21.5413 50.5839 21.547 50.4984 21.547C48.2456 21.547 47.2419 20.0357 46.5119 18.9292C46.1412 18.3646 45.7819 17.8285 45.3599 17.6004C44.7724 17.2753 44.1337 17.2525 43.398 17.224Z" fill="#D7598B"/>
<path d="M35.2026 24.3017V21.6155C35.2026 21.1307 35.5961 20.7429 36.0752 20.7429H38.7671C39.2461 20.7429 39.6396 21.1307 39.6396 21.6155V24.3017C39.6396 24.7864 39.2518 25.1743 38.7671 25.1743H36.0752C35.5904 25.1743 35.2026 24.7807 35.2026 24.3017Z" fill="#ED6C30"/>
<path d="M45.8845 3.32549L47.7836 5.22463C48.1258 5.56682 48.1258 6.12002 47.7836 6.4565L45.8845 8.36135C45.7134 8.52674 45.491 8.61799 45.2686 8.61799C45.0404 8.61799 44.818 8.53244 44.6526 8.36135L42.7478 6.4565C42.4056 6.11432 42.4056 5.56682 42.7478 5.22463L44.6526 3.32549C44.9948 2.9833 45.548 2.9833 45.8845 3.32549Z" fill="#40C0E7"/>
<path d="M51.1886 8.74918C51.0232 8.58379 50.932 8.36707 50.932 8.13324C50.932 7.90512 51.0232 7.6827 51.1886 7.5173L53.0935 5.61246C53.4185 5.28738 54.0003 5.28738 54.3253 5.61246L56.2245 7.5173C56.3899 7.6827 56.4868 7.90512 56.4868 8.13324C56.4868 8.36707 56.3899 8.58379 56.2245 8.74918L54.3253 10.6483C54.2446 10.7295 54.1486 10.7939 54.0429 10.8379C53.9372 10.8818 53.8239 10.9045 53.7094 10.9045C53.5949 10.9045 53.4816 10.8818 53.3759 10.8379C53.2701 10.7939 53.1742 10.7295 53.0935 10.6483L51.1886 8.74918Z" fill="#ED6C30"/>
<path d="M41.4133 27.039C41.7384 26.7082 42.3201 26.7082 42.6509 27.039L44.55 28.9381C44.8922 29.2803 44.8922 29.8335 44.55 30.1757L42.6509 32.0748C42.5701 32.156 42.4742 32.2204 42.3685 32.2644C42.2628 32.3083 42.1494 32.331 42.0349 32.331C41.9204 32.331 41.8071 32.3083 41.7014 32.2644C41.5957 32.2204 41.4997 32.156 41.419 32.0748L39.5198 30.1757C39.1777 29.8335 39.1777 29.2803 39.5198 28.9381L41.4133 27.039ZM17.8936 37.8236C18.2358 37.4814 18.789 37.4814 19.1312 37.8236L20.9163 39.6086C21.2584 39.9508 21.2584 40.504 20.9163 40.8462L19.1312 42.6313C19.0505 42.7125 18.9545 42.7769 18.8488 42.8209C18.7431 42.8648 18.6297 42.8875 18.5152 42.8875C18.4008 42.8875 18.2874 42.8648 18.1817 42.8209C18.076 42.7769 17.98 42.7125 17.8993 42.6313L16.1142 40.8462C15.772 40.504 15.772 39.9508 16.1142 39.6086L17.8936 37.8236ZM-6.28196 25.847C-6.36267 25.9282 -6.45864 25.9926 -6.56435 26.0366C-6.67006 26.0805 -6.78341 26.1032 -6.89789 26.1032C-7.01237 26.1032 -7.12573 26.0805 -7.23143 26.0366C-7.33714 25.9926 -7.43311 25.9282 -7.51383 25.847L-9.30461 24.0619C-9.6411 23.7197 -9.6411 23.1722 -9.30461 22.8301L-7.51383 21.045C-7.17164 20.7028 -6.61844 20.7028 -6.28196 21.045L-4.49688 22.8301C-4.15469 23.1722 -4.15469 23.7197 -4.49688 24.0619L-6.28196 25.847ZM-0.727112 38.2C-0.390629 37.8578 0.168278 37.8578 0.510464 38.2L2.29555 39.985C2.63203 40.3272 2.63203 40.8804 2.29555 41.2226L0.510464 43.0077C0.339371 43.1731 0.111248 43.2643 -0.111172 43.2643C-0.333595 43.2643 -0.556019 43.1788 -0.727112 43.0077L-2.51219 41.2226C-2.85437 40.8804 -2.85437 40.3272 -2.51219 39.985L-0.727112 38.2ZM31.6609 33.6888V31.0026C31.6609 30.5236 32.0545 30.13 32.5335 30.13H35.2254C35.7102 30.13 36.098 30.5236 36.098 31.0026V33.6888C36.098 34.1736 35.7102 34.5614 35.2254 34.5614H32.5335C32.0545 34.5614 31.6609 34.1679 31.6609 33.6888Z" fill="#40C0E7"/>
<path d="M15.4242 30.21H17.9507C18.4298 30.21 18.8233 30.5978 18.8233 31.0825V33.609C18.8233 34.0881 18.4298 34.4816 17.9507 34.4816H15.4242C14.9452 34.4816 14.5516 34.0881 14.5516 33.609V31.0825C14.5516 30.5978 14.9395 30.21 15.4242 30.21ZM41.9495 36.7514H44.6413C45.1204 36.7514 45.5139 37.145 45.5139 37.624V40.3102C45.5139 40.7893 45.1204 41.1828 44.6413 41.1828H41.9495C41.4647 41.1828 41.0769 40.7893 41.0769 40.3102V37.624C41.0769 37.1393 41.4647 36.7514 41.9495 36.7514Z" fill="#ED6C30"/>
<path d="M49.7227 28.9383C50.0592 28.5961 50.6124 28.5961 50.9546 28.9383L52.8537 30.8431C53.0248 31.0085 53.1104 31.2252 53.1104 31.4591C53.1104 31.6929 53.0191 31.9153 52.8537 32.075L50.9546 33.9741C50.8739 34.0553 50.7779 34.1197 50.6722 34.1637C50.5665 34.2077 50.4531 34.2303 50.3386 34.2303C50.2241 34.2303 50.1108 34.2077 50.0051 34.1637C49.8994 34.1197 49.8034 34.0553 49.7227 33.9741L47.8236 32.075C47.4814 31.7328 47.4814 31.1796 47.8236 30.8431L49.7227 28.9383Z" fill="#40C0E7"/>
<path d="M53.8234 -1.83585C52.7284 -1.51077 51.525 -1.756 50.5783 -2.02405C49.8255 -2.23507 49.1183 -2.40616 48.508 -2.22366C47.9035 -2.05257 47.6469 -1.71038 47.2134 -1.08304C46.7629 -0.43288 46.204 0.376966 44.9949 0.850325C44.3334 1.10697 43.649 1.24384 42.9703 1.24384C42.765 1.24384 42.5768 1.23243 42.3943 1.21532C41.9666 1.1697 41.6301 0.810401 41.613 0.382667L41.5331 -1.73889C41.5217 -1.97272 41.6301 -2.20655 41.7955 -2.37765C41.9609 -2.54874 42.2118 -2.64569 42.4456 -2.64569C42.9361 -2.64569 43.398 -2.73124 43.8543 -2.91374C44.5672 -3.19319 44.8809 -3.64374 45.2744 -4.21975C45.7306 -4.87561 46.2952 -5.68546 47.51 -6.04475C48.5194 -6.34132 49.603 -6.11319 50.5384 -5.85085C51.3482 -5.62272 52.1124 -5.44593 52.8139 -5.65694C53.253 -5.78811 53.6237 -6.02194 54.0287 -6.42686C54.2226 -6.60936 54.4963 -6.70632 54.7587 -6.66639C55.0267 -6.63218 55.2605 -6.47249 55.3974 -6.23866L56.3669 -4.58475C56.5551 -4.25968 56.5209 -3.85475 56.27 -3.5696C55.6997 -2.91944 54.9868 -2.18944 53.8234 -1.83585ZM-15.0704 37.9206C-14.8936 37.8123 -14.7453 37.8009 -14.5799 37.7781C-12.7834 37.5899 -11.2265 36.9853 -10.0745 36.0614C-12.5952 34.8181 -13.5876 32.4114 -13.4564 30.9457C-13.4564 30.8887 -13.4507 30.8145 -13.4393 30.7404C-13.2511 28.6245 -11.9508 27.2615 -10.1258 27.2615C-9.67524 27.2615 -9.19618 27.3413 -8.66579 27.501C-7.99853 27.7006 -6.07087 28.2881 -5.05571 32.2118C-3.78392 31.3107 -2.75735 29.8849 -2.1129 28.0827C-2.05587 27.9174 -2.01024 27.7805 -1.86196 27.6379C-1.53688 27.3128 -0.960873 27.3128 -0.630089 27.6379L1.25765 29.5313C1.58273 29.8564 1.59983 30.3697 1.30327 30.7119C1.38882 30.6092 1.42304 30.5351 1.41734 30.5579C0.174053 34.071 -2.2897 36.3466 -5.36938 36.8599C-6.62978 39.6316 -9.37868 41.4224 -13.0629 41.8102C-13.1199 41.8216 -13.1713 41.8216 -13.2283 41.8216C-13.5191 41.8216 -13.81 41.6733 -13.9754 41.4052L-15.367 39.1297C-15.6065 38.7077 -15.4753 38.1716 -15.0704 37.9206ZM-9.46423 32.3829C-9.0479 32.611 -8.63157 32.7992 -8.27228 32.9361C-8.24946 32.5483 -8.24947 32.0806 -8.3065 31.6016C-8.35212 31.0142 -9.08212 30.364 -9.70376 30.364C-9.85774 30.364 -9.99462 30.4039 -10.1144 30.4838C-10.3539 30.6377 -10.4908 30.9001 -10.4794 31.1738C-10.4623 31.6016 -10.103 32.0293 -9.46423 32.3829Z" fill="#ED6C30"/>
<path d="M328.216 2.51002C328.159 2.23057 327.965 2.00244 327.715 1.89408L325.576 0.964474C325.274 0.833302 324.926 0.884631 324.675 1.08424C324.418 1.29526 324.304 1.62604 324.373 1.94541C324.373 1.95682 324.641 3.35408 323.859 4.52322C323.295 5.36158 322.302 5.90908 320.905 6.15432C317.187 6.81018 316.77 9.2226 316.474 10.9792C316.189 12.6445 315.989 13.3916 314.301 13.5513C312.424 13.7281 311.044 14.4296 310.195 15.6386C308.832 17.5663 309.43 20.0357 309.453 20.1384C309.516 20.4007 309.704 20.6174 309.955 20.7258L312.094 21.6554C312.208 21.7067 312.328 21.7296 312.442 21.7296C312.574 21.7298 312.704 21.7 312.823 21.6424C312.942 21.5849 313.047 21.501 313.129 21.3972C313.21 21.2934 313.268 21.1723 313.296 21.0432C313.324 20.914 313.322 20.7801 313.291 20.6517C313.291 20.6346 312.869 18.8381 313.77 17.572C314.318 16.8078 315.27 16.3515 316.611 16.226C319.707 15.9295 320.072 13.7794 320.34 12.211C320.626 10.5571 320.842 9.25112 323.352 8.81198C325.234 8.48119 326.614 7.68275 327.452 6.43377C328.65 4.63158 328.239 2.59557 328.216 2.51002Z" fill="#ED6C30"/>
<path d="M335.003 27.3471C333.691 26.2692 333.942 25.5449 334.632 23.9993C335.368 22.3739 336.372 20.1383 333.646 17.5206C332.631 16.5453 332.112 15.5359 332.106 14.5321C332.095 13.1121 333.11 12.0969 333.115 12.0855C333.349 11.8574 333.435 11.5209 333.344 11.2072C333.247 10.8935 332.99 10.6597 332.665 10.6027L330.372 10.1807C330.098 10.1293 329.813 10.2149 329.608 10.4088C329.551 10.4715 328.062 11.9315 328.068 14.093C328.068 15.5929 328.775 17.0244 330.144 18.3532C331.98 20.1155 331.439 21.3246 330.749 22.8587C330.098 24.313 329.203 26.2977 331.604 28.271C332.648 29.1264 333.19 30.0332 333.212 30.9742C333.258 32.5312 331.906 33.7859 331.895 33.7916C331.644 34.014 331.553 34.3619 331.638 34.6756C331.73 35.0007 331.992 35.2402 332.323 35.2972L334.615 35.7192C334.667 35.7307 334.718 35.7364 334.769 35.7364C334.98 35.7364 335.191 35.6565 335.357 35.5139C335.437 35.4398 337.313 33.7289 337.256 31.3678C337.21 29.8964 336.457 28.5447 335.003 27.3471ZM322.536 27.0049C323.802 24.8092 323.106 22.8587 323.078 22.7732C322.992 22.545 322.816 22.3568 322.582 22.2713L320.54 21.45C320.226 21.3246 319.861 21.393 319.616 21.6325C319.371 21.8664 319.28 22.2314 319.394 22.5564C319.411 22.6078 319.827 23.8567 318.983 25.311C318.595 25.9726 318.105 26.2178 317.477 26.5258C316.765 26.8737 315.875 27.3071 315.339 28.4592C314.837 29.5314 314.968 30.5693 315.076 31.4875C315.179 32.3259 315.265 33.0445 314.922 33.7574C314.563 34.5216 313.947 34.9037 313.234 35.3485C312.527 35.7877 311.729 36.2839 311.153 37.2021C310.662 37.9834 310.605 38.8731 310.548 39.7399C310.451 41.1486 310.337 42.044 309.111 42.6714C308.809 42.8253 308.62 43.1447 308.632 43.4869C308.649 43.8291 308.86 44.1314 309.179 44.2568L311.221 45.0781C311.324 45.1237 311.438 45.1408 311.546 45.1408C311.683 45.1408 311.814 45.1066 311.94 45.0439C314.107 43.9431 314.238 42.0554 314.324 40.6753C314.369 39.9966 314.409 39.3578 314.671 38.9529C315.031 38.3712 315.578 38.0404 316.2 37.6469C317.027 37.1279 317.956 36.5519 318.538 35.3257C319.097 34.1509 318.966 33.0559 318.84 32.0921C318.744 31.3107 318.664 30.6321 318.955 30.0161C319.217 29.4458 319.588 29.2462 320.278 28.9097C321.002 28.5561 321.892 28.1284 322.536 27.0049ZM297.602 17.224C298.572 17.1898 299.672 17.1442 300.784 16.3685C301.851 15.6214 302.273 14.612 302.655 13.7109C302.963 12.9809 303.225 12.3535 303.784 11.96C304.355 11.5608 304.885 11.6178 305.478 11.6578C305.712 11.6749 305.951 11.6863 306.185 11.6863C306.704 11.6863 307.491 11.6292 308.375 11.116C310.565 9.84417 310.925 7.79675 310.942 7.7112C310.982 7.47167 310.913 7.22073 310.765 7.02682L309.396 5.29878C309.185 5.03073 308.826 4.91096 308.495 4.99651C308.164 5.08206 307.913 5.35581 307.856 5.698C307.851 5.7094 307.6 7.02682 306.134 7.87659C305.729 8.11612 305.347 8.21308 304.822 8.21308C304.623 8.21308 304.423 8.20167 304.223 8.19026C303.995 8.17315 303.773 8.16175 303.545 8.16175C302.974 8.16175 302.222 8.23589 301.412 8.8119C300.442 9.49628 300.043 10.4601 299.684 11.3156C299.359 12.0912 299.073 12.7585 298.423 13.2147C297.733 13.6938 297.009 13.7223 296.171 13.7565C295.344 13.7907 294.403 13.825 293.444 14.3382C292.635 14.7774 292.138 15.5188 291.665 16.2374C290.912 17.378 290.388 18.0738 289.133 18.0738L288.962 18.0681C288.631 18.051 288.3 18.2335 288.141 18.5414C287.987 18.8437 288.021 19.2144 288.237 19.4824L289.606 21.2105C289.766 21.4044 290 21.5242 290.245 21.5356C290.331 21.5413 290.416 21.547 290.502 21.547C292.754 21.547 293.758 20.0357 294.488 18.9292C294.859 18.3646 295.218 17.8285 295.64 17.6004C296.228 17.2753 296.866 17.2525 297.602 17.224Z" fill="#D7598B"/>
<path d="M305.797 24.3017V21.6155C305.797 21.1307 305.404 20.7429 304.925 20.7429H302.233C301.754 20.7429 301.36 21.1307 301.36 21.6155V24.3017C301.36 24.7864 301.748 25.1743 302.233 25.1743H304.925C305.41 25.1743 305.797 24.7807 305.797 24.3017Z" fill="#ED6C30"/>
<path d="M295.115 3.32549L293.216 5.22463C292.874 5.56682 292.874 6.12002 293.216 6.4565L295.115 8.36135C295.287 8.52674 295.509 8.61799 295.731 8.61799C295.96 8.61799 296.182 8.53244 296.347 8.36135L298.252 6.4565C298.594 6.11432 298.594 5.56682 298.252 5.22463L296.347 3.32549C296.005 2.9833 295.452 2.9833 295.115 3.32549Z" fill="#40C0E7"/>
<path d="M289.811 8.74918C289.977 8.58379 290.068 8.36707 290.068 8.13324C290.068 7.90512 289.977 7.6827 289.811 7.5173L287.907 5.61246C287.581 5.28738 287 5.28738 286.675 5.61246L284.776 7.5173C284.61 7.6827 284.513 7.90512 284.513 8.13324C284.513 8.36707 284.61 8.58379 284.776 8.74918L286.675 10.6483C286.755 10.7295 286.851 10.7939 286.957 10.8379C287.063 10.8818 287.176 10.9045 287.291 10.9045C287.405 10.9045 287.518 10.8818 287.624 10.8379C287.73 10.7939 287.826 10.7295 287.907 10.6483L289.811 8.74918Z" fill="#ED6C30"/>
<path d="M299.587 27.039C299.262 26.7082 298.68 26.7082 298.349 27.039L296.45 28.9381C296.108 29.2803 296.108 29.8335 296.45 30.1757L298.349 32.0748C298.43 32.156 298.526 32.2204 298.632 32.2644C298.737 32.3083 298.851 32.331 298.965 32.331C299.08 32.331 299.193 32.3083 299.299 32.2644C299.404 32.2204 299.5 32.156 299.581 32.0748L301.48 30.1757C301.822 29.8335 301.822 29.2803 301.48 28.9381L299.587 27.039ZM323.106 37.8236C322.764 37.4814 322.211 37.4814 321.869 37.8236L320.084 39.6086C319.742 39.9508 319.742 40.504 320.084 40.8462L321.869 42.6313C321.95 42.7125 322.046 42.7769 322.151 42.8209C322.257 42.8648 322.37 42.8875 322.485 42.8875C322.599 42.8875 322.713 42.8648 322.818 42.8209C322.924 42.7769 323.02 42.7125 323.101 42.6313L324.886 40.8462C325.228 40.504 325.228 39.9508 324.886 39.6086L323.106 37.8236ZM347.282 25.847C347.363 25.9282 347.459 25.9926 347.564 26.0366C347.67 26.0805 347.783 26.1032 347.898 26.1032C348.012 26.1032 348.126 26.0805 348.231 26.0366C348.337 25.9926 348.433 25.9282 348.514 25.847L350.305 24.0619C350.641 23.7197 350.641 23.1722 350.305 22.8301L348.514 21.045C348.172 20.7028 347.618 20.7028 347.282 21.045L345.497 22.8301C345.155 23.1722 345.155 23.7197 345.497 24.0619L347.282 25.847ZM341.727 38.2C341.391 37.8578 340.832 37.8578 340.49 38.2L338.704 39.985C338.368 40.3272 338.368 40.8804 338.704 41.2226L340.49 43.0077C340.661 43.1731 340.889 43.2643 341.111 43.2643C341.334 43.2643 341.556 43.1788 341.727 43.0077L343.512 41.2226C343.854 40.8804 343.854 40.3272 343.512 39.985L341.727 38.2ZM309.339 33.6888V31.0026C309.339 30.5236 308.946 30.13 308.466 30.13H305.775C305.29 30.13 304.902 30.5236 304.902 31.0026V33.6888C304.902 34.1736 305.29 34.5614 305.775 34.5614H308.466C308.946 34.5614 309.339 34.1679 309.339 33.6888Z" fill="#40C0E7"/>
<path d="M325.576 30.21H323.049C322.57 30.21 322.177 30.5978 322.177 31.0825V33.609C322.177 34.0881 322.57 34.4816 323.049 34.4816H325.576C326.055 34.4816 326.448 34.0881 326.448 33.609V31.0825C326.448 30.5978 326.061 30.21 325.576 30.21ZM299.051 36.7514H296.359C295.88 36.7514 295.486 37.145 295.486 37.624V40.3102C295.486 40.7893 295.88 41.1828 296.359 41.1828H299.051C299.535 41.1828 299.923 40.7893 299.923 40.3102V37.624C299.923 37.1393 299.535 36.7514 299.051 36.7514Z" fill="#ED6C30"/>
<path d="M291.277 28.9383C290.941 28.5961 290.388 28.5961 290.045 28.9383L288.146 30.8431C287.975 31.0085 287.89 31.2252 287.89 31.4591C287.89 31.6929 287.981 31.9153 288.146 32.075L290.045 33.9741C290.126 34.0553 290.222 34.1197 290.328 34.1637C290.434 34.2077 290.547 34.2303 290.661 34.2303C290.776 34.2303 290.889 34.2077 290.995 34.1637C291.101 34.1197 291.197 34.0553 291.277 33.9741L293.176 32.075C293.519 31.7328 293.519 31.1796 293.176 30.8431L291.277 28.9383Z" fill="#40C0E7"/>
<path d="M287.177 -1.83585C288.272 -1.51077 289.475 -1.756 290.422 -2.02405C291.175 -2.23507 291.882 -2.40616 292.492 -2.22366C293.096 -2.05257 293.353 -1.71038 293.787 -1.08304C294.237 -0.43288 294.796 0.376966 296.005 0.850325C296.667 1.10697 297.351 1.24384 298.03 1.24384C298.235 1.24384 298.423 1.23243 298.606 1.21532C299.033 1.1697 299.37 0.810401 299.387 0.382667L299.467 -1.73889C299.478 -1.97272 299.37 -2.20655 299.205 -2.37765C299.039 -2.54874 298.788 -2.64569 298.554 -2.64569C298.064 -2.64569 297.602 -2.73124 297.146 -2.91374C296.433 -3.19319 296.119 -3.64374 295.726 -4.21975C295.269 -4.87561 294.705 -5.68546 293.49 -6.04475C292.481 -6.34132 291.397 -6.11319 290.462 -5.85085C289.652 -5.62272 288.888 -5.44593 288.186 -5.65694C287.747 -5.78811 287.376 -6.02194 286.971 -6.42686C286.777 -6.60936 286.504 -6.70632 286.241 -6.66639C285.973 -6.63218 285.739 -6.47249 285.603 -6.23866L284.633 -4.58475C284.445 -4.25968 284.479 -3.85475 284.73 -3.5696C285.3 -2.91944 286.013 -2.18944 287.177 -1.83585ZM356.07 37.9206C355.894 37.8123 355.745 37.8009 355.58 37.7781C353.783 37.5899 352.226 36.9853 351.074 36.0614C353.595 34.8181 354.588 32.4114 354.456 30.9457C354.456 30.8887 354.451 30.8145 354.439 30.7404C354.251 28.6245 352.951 27.2615 351.126 27.2615C350.675 27.2615 350.196 27.3413 349.666 27.501C348.999 27.7006 347.071 28.2881 346.056 32.2118C344.784 31.3107 343.757 29.8849 343.113 28.0827C343.056 27.9174 343.01 27.7805 342.862 27.6379C342.537 27.3128 341.961 27.3128 341.63 27.6379L339.742 29.5313C339.417 29.8564 339.4 30.3697 339.697 30.7119C339.611 30.6092 339.577 30.5351 339.583 30.5579C340.826 34.071 343.29 36.3466 346.369 36.8599C347.63 39.6316 350.379 41.4224 354.063 41.8102C354.12 41.8216 354.171 41.8216 354.228 41.8216C354.519 41.8216 354.81 41.6733 354.975 41.4052L356.367 39.1297C356.606 38.7077 356.475 38.1716 356.07 37.9206ZM350.464 32.3829C350.048 32.611 349.632 32.7992 349.272 32.9361C349.249 32.5483 349.249 32.0806 349.306 31.6016C349.352 31.0142 350.082 30.364 350.704 30.364C350.858 30.364 350.995 30.4039 351.114 30.4838C351.354 30.6377 351.491 30.9001 351.479 31.1738C351.462 31.6016 351.103 32.0293 350.464 32.3829Z" fill="#ED6C30"/>
</g>
<rect x="6.5" y="2.5" width="328" height="134" rx="7.5" stroke="#C5FEC3"/>
</g>
<defs>
<filter id="filter0_dd_7250_19222" x="0" y="0" width="341" height="147" filterUnits="userSpaceOnUse" color-interpolation-filters="sRGB">
<feFlood flood-opacity="0" result="BackgroundImageFix"/>
<feColorMatrix in="SourceAlpha" type="matrix" values="0 0 0 0 0 0 0 0 0 0 0 0 0 0 0 0 0 0 127 0" result="hardAlpha"/>
<feOffset dy="4"/>
<feGaussianBlur stdDeviation="3"/>
<feColorMatrix type="matrix" values="0 0 0 0 0 0 0 0 0 0 0 0 0 0 0 0 0 0 0.1 0"/>
<feBlend mode="normal" in2="BackgroundImageFix" result="effect1_dropShadow_7250_19222"/>
<feColorMatrix in="SourceAlpha" type="matrix" values="0 0 0 0 0 0 0 0 0 0 0 0 0 0 0 0 0 0 127 0" result="hardAlpha"/>
<feOffset dy="2"/>
<feGaussianBlur stdDeviation="2"/>
<feColorMatrix type="matrix" values="0 0 0 0 0 0 0 0 0 0 0 0 0 0 0 0 0 0 0.06 0"/>
<feBlend mode="normal" in2="effect1_dropShadow_7250_19222" result="effect2_dropShadow_7250_19222"/>
<feBlend mode="normal" in="SourceGraphic" in2="effect2_dropShadow_7250_19222" result="shape"/>
</filter>
<filter id="filter1_f_7250_19222" x="-58" y="-14" width="457" height="304" filterUnits="userSpaceOnUse" color-interpolation-filters="sRGB">
<feFlood flood-opacity="0" result="BackgroundImageFix"/>
<feBlend mode="normal" in="SourceGraphic" in2="BackgroundImageFix" result="shape"/>
<feGaussianBlur stdDeviation="25" result="effect1_foregroundBlur_7250_19222"/>
</filter>
<linearGradient id="paint0_linear_7250_19222" x1="170.5" y1="2" x2="170.5" y2="137" gradientUnits="userSpaceOnUse">
<stop offset="1" stop-color="#BEFFB9"/>
</linearGradient>
<clipPath id="clip0_7250_19222">
<rect x="6" y="2" width="329" height="135" rx="8" fill="white"/>
</clipPath>
</defs>
</svg>
