<svg width="454" height="252" viewBox="0 0 454 252" fill="none" xmlns="http://www.w3.org/2000/svg">
<g clip-path="url(#clip0_8285_14256)">
<rect width="454" height="252" fill="#DCFCE7"/>
<g filter="url(#filter0_f_8285_14256)">
<ellipse cx="52.5" cy="198" rx="97.5" ry="99" fill="#FFFFF2"/>
</g>
<g filter="url(#filter1_f_8285_14256)">
<ellipse cx="301.5" cy="46" rx="97.5" ry="99" fill="#FFFFF2"/>
</g>
<path d="M241.884 69.7213H212.118C208.52 69.7199 204.956 70.4275 201.631 71.8036C198.307 73.1798 195.286 75.1976 192.741 77.7417C190.196 80.2858 188.178 83.3064 186.801 86.6309C185.424 89.9554 184.716 93.5185 184.717 97.1168V126.883C184.715 130.482 185.423 134.045 186.8 137.37C188.176 140.696 190.194 143.717 192.739 146.261C195.284 148.806 198.305 150.824 201.63 152.201C204.955 153.578 208.519 154.285 212.118 154.284H241.884C245.483 154.285 249.046 153.578 252.371 152.201C255.697 150.824 258.718 148.806 261.262 146.261C263.807 143.717 265.825 140.696 267.202 137.37C268.578 134.045 269.286 130.482 269.285 126.883V97.1168C269.286 93.5181 268.578 89.9543 267.202 86.6292C265.825 83.3041 263.807 80.2829 261.262 77.7382C258.718 75.1935 255.697 73.1752 252.371 71.7987C249.046 70.4221 245.483 69.7144 241.884 69.7158V69.7213Z" stroke="#659D84" stroke-width="4.52055"/>
<path d="M268.833 131.734H277.738C279.233 131.734 280.667 131.14 281.724 130.083C282.781 129.026 283.375 127.592 283.375 126.096V97.909C283.375 96.4138 282.781 94.9799 281.724 93.9227C280.667 92.8654 279.233 92.2715 277.738 92.2715H268.828M185.173 131.734H176.263C175.522 131.734 174.789 131.588 174.105 131.305C173.421 131.022 172.8 130.606 172.276 130.083C171.753 129.559 171.337 128.938 171.054 128.254C170.771 127.57 170.625 126.837 170.625 126.096V97.909C170.625 96.4138 171.219 94.9799 172.276 93.9227C173.333 92.8654 174.767 92.2715 176.263 92.2715H185.173" stroke="#659D84" stroke-width="4.52055"/>
<path d="M176.209 92.2717V69.7217M277.739 92.2717L277.684 69.7217M210.034 94.1967V109.036M243.859 94.1967V109.036M215.726 131.734C217.204 130.248 218.96 129.068 220.895 128.263C222.831 127.457 224.906 127.043 227.001 127.043C229.097 127.043 231.172 127.457 233.107 128.263C235.043 129.068 236.799 130.248 238.276 131.734" stroke="#659D84" stroke-width="4.52055" stroke-linecap="round" stroke-linejoin="round"/>
<path d="M126.889 175.05C126.752 174.619 126.567 174.233 126.335 173.892C126.108 173.546 125.836 173.253 125.518 173.011C125.201 172.765 124.839 172.578 124.432 172.45C124.029 172.322 123.586 172.259 123.104 172.259C122.284 172.259 121.546 172.469 120.888 172.891C120.229 173.312 119.709 173.93 119.325 174.744C118.946 175.554 118.757 176.546 118.757 177.72C118.757 178.899 118.949 179.896 119.332 180.71C119.716 181.525 120.241 182.143 120.909 182.564C121.577 182.985 122.336 183.196 123.189 183.196C123.979 183.196 124.668 183.035 125.256 182.713C125.847 182.391 126.304 181.937 126.626 181.349C126.953 180.758 127.116 180.062 127.116 179.261L127.684 179.368H123.523V177.557H129.24V179.212C129.24 180.433 128.979 181.494 128.459 182.393C127.943 183.288 127.228 183.98 126.314 184.467C125.405 184.955 124.363 185.199 123.189 185.199C121.872 185.199 120.717 184.896 119.723 184.29C118.733 183.684 117.961 182.824 117.407 181.712C116.854 180.594 116.577 179.268 116.577 177.734C116.577 176.574 116.738 175.533 117.059 174.609C117.381 173.686 117.834 172.902 118.416 172.259C119.003 171.61 119.692 171.115 120.483 170.774C121.278 170.429 122.147 170.256 123.089 170.256C123.875 170.256 124.607 170.372 125.284 170.604C125.966 170.836 126.572 171.165 127.102 171.591C127.637 172.017 128.08 172.524 128.43 173.111C128.781 173.693 129.017 174.339 129.14 175.05H126.889ZM135.03 185.241C134.339 185.241 133.714 185.114 133.155 184.858C132.596 184.598 132.154 184.221 131.827 183.729C131.505 183.236 131.344 182.633 131.344 181.918C131.344 181.302 131.462 180.795 131.699 180.398C131.936 180 132.255 179.685 132.658 179.453C133.06 179.221 133.51 179.046 134.007 178.928C134.504 178.809 135.011 178.719 135.527 178.658C136.181 178.582 136.711 178.52 137.118 178.473C137.525 178.421 137.821 178.338 138.006 178.224C138.191 178.111 138.283 177.926 138.283 177.67V177.621C138.283 177 138.108 176.52 137.757 176.179C137.412 175.838 136.896 175.668 136.209 175.668C135.494 175.668 134.931 175.826 134.519 176.143C134.111 176.456 133.83 176.804 133.673 177.188L131.678 176.733C131.914 176.07 132.26 175.535 132.715 175.128C133.174 174.716 133.702 174.418 134.298 174.233C134.895 174.044 135.522 173.949 136.181 173.949C136.616 173.949 137.078 174.001 137.566 174.105C138.058 174.205 138.517 174.389 138.943 174.659C139.374 174.929 139.727 175.315 140.002 175.817C140.276 176.314 140.414 176.96 140.414 177.756V185H138.34V183.509H138.254C138.117 183.783 137.911 184.053 137.637 184.318C137.362 184.583 137.009 184.804 136.578 184.979C136.147 185.154 135.631 185.241 135.03 185.241ZM135.492 183.537C136.079 183.537 136.581 183.421 136.997 183.189C137.419 182.957 137.738 182.654 137.956 182.28C138.179 181.901 138.29 181.496 138.29 181.065V179.659C138.214 179.735 138.067 179.806 137.85 179.872C137.637 179.934 137.393 179.988 137.118 180.036C136.843 180.078 136.576 180.118 136.316 180.156C136.055 180.189 135.837 180.218 135.662 180.241C135.25 180.294 134.874 180.381 134.533 180.504C134.197 180.627 133.927 180.805 133.723 181.037C133.524 181.264 133.425 181.567 133.425 181.946C133.425 182.472 133.619 182.869 134.007 183.139C134.396 183.404 134.89 183.537 135.492 183.537ZM143.242 185V174.091H145.28V175.866H145.415C145.643 175.265 146.014 174.796 146.53 174.46C147.046 174.119 147.664 173.949 148.384 173.949C149.113 173.949 149.724 174.119 150.216 174.46C150.714 174.801 151.081 175.27 151.317 175.866H151.431C151.691 175.284 152.106 174.82 152.674 174.474C153.242 174.124 153.919 173.949 154.705 173.949C155.695 173.949 156.502 174.259 157.127 174.879C157.757 175.5 158.072 176.435 158.072 177.685V185H155.948V177.884C155.948 177.145 155.747 176.61 155.344 176.278C154.942 175.947 154.461 175.781 153.903 175.781C153.211 175.781 152.674 175.994 152.29 176.42C151.907 176.842 151.715 177.384 151.715 178.047V185H149.599V177.749C149.599 177.157 149.414 176.681 149.045 176.321C148.675 175.961 148.195 175.781 147.603 175.781C147.2 175.781 146.829 175.888 146.488 176.101C146.152 176.309 145.879 176.6 145.671 176.974C145.467 177.348 145.366 177.782 145.366 178.274V185H143.242ZM161.088 185V170.455H163.212V175.859H163.34C163.463 175.632 163.64 175.369 163.872 175.071C164.104 174.773 164.426 174.512 164.838 174.29C165.25 174.062 165.795 173.949 166.472 173.949C167.352 173.949 168.138 174.171 168.83 174.616C169.521 175.062 170.063 175.703 170.456 176.541C170.854 177.379 171.053 178.388 171.053 179.567C171.053 180.746 170.856 181.757 170.463 182.599C170.07 183.437 169.53 184.084 168.844 184.538C168.157 184.988 167.374 185.213 166.493 185.213C165.83 185.213 165.288 185.102 164.867 184.879C164.45 184.657 164.123 184.396 163.887 184.098C163.65 183.8 163.468 183.535 163.34 183.303H163.162V185H161.088ZM163.169 179.545C163.169 180.312 163.28 180.985 163.503 181.562C163.726 182.14 164.048 182.592 164.469 182.919C164.89 183.241 165.406 183.402 166.017 183.402C166.652 183.402 167.182 183.234 167.608 182.898C168.034 182.557 168.356 182.095 168.574 181.513C168.797 180.93 168.908 180.275 168.908 179.545C168.908 178.826 168.799 178.179 168.581 177.607C168.368 177.034 168.046 176.581 167.615 176.25C167.189 175.919 166.656 175.753 166.017 175.753C165.402 175.753 164.881 175.911 164.455 176.229C164.033 176.546 163.714 176.989 163.496 177.557C163.278 178.125 163.169 178.788 163.169 179.545ZM176.612 185.241C175.921 185.241 175.296 185.114 174.737 184.858C174.178 184.598 173.736 184.221 173.409 183.729C173.087 183.236 172.926 182.633 172.926 181.918C172.926 181.302 173.044 180.795 173.281 180.398C173.518 180 173.837 179.685 174.24 179.453C174.642 179.221 175.092 179.046 175.589 178.928C176.086 178.809 176.593 178.719 177.109 178.658C177.763 178.582 178.293 178.52 178.7 178.473C179.107 178.421 179.403 178.338 179.588 178.224C179.773 178.111 179.865 177.926 179.865 177.67V177.621C179.865 177 179.69 176.52 179.339 176.179C178.994 175.838 178.478 175.668 177.791 175.668C177.076 175.668 176.513 175.826 176.101 176.143C175.693 176.456 175.412 176.804 175.256 177.188L173.26 176.733C173.497 176.07 173.842 175.535 174.297 175.128C174.756 174.716 175.284 174.418 175.881 174.233C176.477 174.044 177.104 173.949 177.763 173.949C178.198 173.949 178.66 174.001 179.148 174.105C179.64 174.205 180.099 174.389 180.525 174.659C180.956 174.929 181.309 175.315 181.584 175.817C181.858 176.314 181.996 176.96 181.996 177.756V185H179.922V183.509H179.836C179.699 183.783 179.493 184.053 179.219 184.318C178.944 184.583 178.591 184.804 178.16 184.979C177.729 185.154 177.213 185.241 176.612 185.241ZM177.074 183.537C177.661 183.537 178.163 183.421 178.579 183.189C179.001 182.957 179.32 182.654 179.538 182.28C179.761 181.901 179.872 181.496 179.872 181.065V179.659C179.796 179.735 179.649 179.806 179.432 179.872C179.219 179.934 178.975 179.988 178.7 180.036C178.425 180.078 178.158 180.118 177.898 180.156C177.637 180.189 177.419 180.218 177.244 180.241C176.832 180.294 176.456 180.381 176.115 180.504C175.779 180.627 175.509 180.805 175.305 181.037C175.106 181.264 175.007 181.567 175.007 181.946C175.007 182.472 175.201 182.869 175.589 183.139C175.978 183.404 176.472 183.537 177.074 183.537ZM184.824 185V174.091H186.877V175.824H186.99C187.189 175.237 187.539 174.775 188.041 174.439C188.548 174.098 189.121 173.928 189.76 173.928C189.893 173.928 190.049 173.932 190.229 173.942C190.414 173.951 190.558 173.963 190.662 173.977V176.009C190.577 175.985 190.425 175.959 190.208 175.93C189.99 175.897 189.772 175.881 189.554 175.881C189.052 175.881 188.605 175.987 188.212 176.2C187.824 176.409 187.516 176.7 187.289 177.074C187.061 177.443 186.948 177.865 186.948 178.338V185H184.824ZM197.963 185V170.455H200.087V175.859H200.215C200.338 175.632 200.515 175.369 200.747 175.071C200.979 174.773 201.301 174.512 201.713 174.29C202.125 174.062 202.67 173.949 203.347 173.949C204.227 173.949 205.013 174.171 205.705 174.616C206.396 175.062 206.938 175.703 207.331 176.541C207.729 177.379 207.928 178.388 207.928 179.567C207.928 180.746 207.731 181.757 207.338 182.599C206.945 183.437 206.405 184.084 205.719 184.538C205.032 184.988 204.249 185.213 203.368 185.213C202.705 185.213 202.163 185.102 201.742 184.879C201.325 184.657 200.998 184.396 200.762 184.098C200.525 183.8 200.343 183.535 200.215 183.303H200.037V185H197.963ZM200.044 179.545C200.044 180.312 200.155 180.985 200.378 181.562C200.601 182.14 200.923 182.592 201.344 182.919C201.765 183.241 202.281 183.402 202.892 183.402C203.527 183.402 204.057 183.234 204.483 182.898C204.909 182.557 205.231 182.095 205.449 181.513C205.672 180.93 205.783 180.275 205.783 179.545C205.783 178.826 205.674 178.179 205.456 177.607C205.243 177.034 204.921 176.581 204.49 176.25C204.064 175.919 203.531 175.753 202.892 175.753C202.277 175.753 201.756 175.911 201.33 176.229C200.908 176.546 200.589 176.989 200.371 177.557C200.153 178.125 200.044 178.788 200.044 179.545ZM215.014 185.22C213.939 185.22 213.014 184.991 212.237 184.531C211.465 184.067 210.869 183.416 210.447 182.578C210.031 181.735 209.822 180.748 209.822 179.616C209.822 178.499 210.031 177.514 210.447 176.662C210.869 175.81 211.456 175.144 212.209 174.666C212.966 174.188 213.852 173.949 214.865 173.949C215.48 173.949 216.077 174.051 216.655 174.254C217.232 174.458 217.751 174.777 218.21 175.213C218.669 175.649 219.032 176.214 219.297 176.911C219.562 177.602 219.694 178.442 219.694 179.432V180.185H211.023V178.594H217.613C217.613 178.035 217.5 177.54 217.273 177.109C217.045 176.674 216.726 176.33 216.314 176.08C215.907 175.829 215.428 175.703 214.879 175.703C214.282 175.703 213.762 175.85 213.317 176.143C212.876 176.432 212.535 176.811 212.294 177.28C212.057 177.744 211.939 178.248 211.939 178.793V180.036C211.939 180.765 212.067 181.385 212.322 181.896C212.583 182.408 212.945 182.798 213.409 183.068C213.873 183.333 214.415 183.466 215.035 183.466C215.438 183.466 215.805 183.409 216.136 183.295C216.468 183.177 216.754 183.002 216.996 182.77C217.237 182.538 217.422 182.251 217.55 181.911L219.559 182.273C219.398 182.865 219.11 183.383 218.693 183.828C218.281 184.268 217.763 184.612 217.138 184.858C216.517 185.099 215.809 185.22 215.014 185.22ZM224.174 170.455V185H222.051V170.455H224.174ZM233.942 180.476V174.091H236.072V185H233.984V183.111H233.871C233.62 183.693 233.217 184.179 232.663 184.567C232.114 184.95 231.43 185.142 230.611 185.142C229.91 185.142 229.29 184.988 228.75 184.68C228.215 184.368 227.793 183.906 227.486 183.295C227.183 182.685 227.031 181.929 227.031 181.03V174.091H229.155V180.774C229.155 181.518 229.361 182.109 229.773 182.55C230.184 182.99 230.72 183.21 231.378 183.21C231.775 183.21 232.171 183.111 232.564 182.912C232.961 182.713 233.291 182.412 233.551 182.01C233.816 181.607 233.946 181.096 233.942 180.476ZM238.926 185V174.091H240.964V175.866H241.099C241.326 175.265 241.698 174.796 242.214 174.46C242.73 174.119 243.348 173.949 244.068 173.949C244.797 173.949 245.408 174.119 245.9 174.46C246.397 174.801 246.764 175.27 247.001 175.866H247.115C247.375 175.284 247.789 174.82 248.357 174.474C248.926 174.124 249.603 173.949 250.389 173.949C251.378 173.949 252.186 174.259 252.811 174.879C253.44 175.5 253.755 176.435 253.755 177.685V185H251.632V177.884C251.632 177.145 251.43 176.61 251.028 176.278C250.625 175.947 250.145 175.781 249.586 175.781C248.895 175.781 248.357 175.994 247.974 176.42C247.59 176.842 247.399 177.384 247.399 178.047V185H245.282V177.749C245.282 177.157 245.097 176.681 244.728 176.321C244.359 175.961 243.878 175.781 243.286 175.781C242.884 175.781 242.512 175.888 242.171 176.101C241.835 176.309 241.563 176.6 241.355 176.974C241.151 177.348 241.049 177.782 241.049 178.274V185H238.926ZM266.987 174.091V175.795H261.028V174.091H266.987ZM262.626 171.477H264.749V181.797C264.749 182.209 264.811 182.519 264.934 182.727C265.057 182.931 265.216 183.071 265.41 183.146C265.609 183.217 265.824 183.253 266.056 183.253C266.227 183.253 266.376 183.241 266.504 183.217C266.632 183.194 266.731 183.175 266.802 183.161L267.186 184.915C267.062 184.962 266.887 185.009 266.66 185.057C266.433 185.109 266.149 185.137 265.808 185.142C265.249 185.152 264.728 185.052 264.245 184.844C263.762 184.635 263.372 184.313 263.073 183.878C262.775 183.442 262.626 182.895 262.626 182.237V171.477ZM273.92 185.22C272.845 185.22 271.92 184.991 271.143 184.531C270.372 184.067 269.775 183.416 269.354 182.578C268.937 181.735 268.729 180.748 268.729 179.616C268.729 178.499 268.937 177.514 269.354 176.662C269.775 175.81 270.362 175.144 271.115 174.666C271.872 174.188 272.758 173.949 273.771 173.949C274.387 173.949 274.983 174.051 275.561 174.254C276.139 174.458 276.657 174.777 277.116 175.213C277.576 175.649 277.938 176.214 278.203 176.911C278.468 177.602 278.601 178.442 278.601 179.432V180.185H269.929V178.594H276.52C276.52 178.035 276.406 177.54 276.179 177.109C275.952 176.674 275.632 176.33 275.22 176.08C274.813 175.829 274.335 175.703 273.785 175.703C273.189 175.703 272.668 175.85 272.223 176.143C271.782 176.432 271.442 176.811 271.2 177.28C270.963 177.744 270.845 178.248 270.845 178.793V180.036C270.845 180.765 270.973 181.385 271.229 181.896C271.489 182.408 271.851 182.798 272.315 183.068C272.779 183.333 273.321 183.466 273.942 183.466C274.344 183.466 274.711 183.409 275.042 183.295C275.374 183.177 275.66 183.002 275.902 182.77C276.143 182.538 276.328 182.251 276.456 181.911L278.466 182.273C278.305 182.865 278.016 183.383 277.599 183.828C277.187 184.268 276.669 184.612 276.044 184.858C275.424 185.099 274.716 185.22 273.92 185.22ZM280.957 185V174.091H283.009V175.824H283.123C283.322 175.237 283.672 174.775 284.174 174.439C284.681 174.098 285.254 173.928 285.893 173.928C286.026 173.928 286.182 173.932 286.362 173.942C286.546 173.951 286.691 173.963 286.795 173.977V176.009C286.71 175.985 286.558 175.959 286.34 175.93C286.123 175.897 285.905 175.881 285.687 175.881C285.185 175.881 284.738 175.987 284.345 176.2C283.956 176.409 283.649 176.7 283.421 177.074C283.194 177.443 283.08 177.865 283.08 178.338V185H280.957ZM296.807 176.754L294.883 177.095C294.802 176.849 294.674 176.615 294.499 176.392C294.329 176.17 294.097 175.987 293.803 175.845C293.51 175.703 293.143 175.632 292.702 175.632C292.101 175.632 291.599 175.767 291.197 176.037C290.794 176.302 290.593 176.645 290.593 177.067C290.593 177.431 290.728 177.725 290.998 177.947C291.268 178.17 291.703 178.352 292.305 178.494L294.037 178.892C295.041 179.124 295.789 179.482 296.282 179.964C296.774 180.447 297.02 181.075 297.02 181.847C297.02 182.5 296.831 183.082 296.452 183.594C296.078 184.1 295.555 184.498 294.883 184.787C294.215 185.076 293.441 185.22 292.56 185.22C291.339 185.22 290.342 184.96 289.57 184.439C288.798 183.913 288.325 183.168 288.15 182.202L290.202 181.889C290.33 182.424 290.593 182.829 290.991 183.104C291.388 183.374 291.907 183.509 292.546 183.509C293.242 183.509 293.798 183.364 294.215 183.075C294.632 182.782 294.84 182.424 294.84 182.003C294.84 181.662 294.712 181.375 294.456 181.143C294.206 180.911 293.82 180.736 293.299 180.618L291.452 180.213C290.434 179.981 289.681 179.612 289.194 179.105C288.711 178.598 288.469 177.957 288.469 177.18C288.469 176.536 288.649 175.973 289.009 175.49C289.369 175.007 289.866 174.631 290.501 174.361C291.135 174.086 291.862 173.949 292.681 173.949C293.86 173.949 294.788 174.205 295.465 174.716C296.142 175.223 296.59 175.902 296.807 176.754ZM304.057 185.22C302.982 185.22 302.057 184.991 301.28 184.531C300.508 184.067 299.912 183.416 299.49 182.578C299.074 181.735 298.865 180.748 298.865 179.616C298.865 178.499 299.074 177.514 299.49 176.662C299.912 175.81 300.499 175.144 301.252 174.666C302.009 174.188 302.895 173.949 303.908 173.949C304.523 173.949 305.12 174.051 305.698 174.254C306.275 174.458 306.794 174.777 307.253 175.213C307.712 175.649 308.075 176.214 308.34 176.911C308.605 177.602 308.737 178.442 308.737 179.432V180.185H300.066V178.594H306.656C306.656 178.035 306.543 177.54 306.316 177.109C306.088 176.674 305.769 176.33 305.357 176.08C304.95 175.829 304.471 175.703 303.922 175.703C303.325 175.703 302.805 175.85 302.36 176.143C301.919 176.432 301.578 176.811 301.337 177.28C301.1 177.744 300.982 178.248 300.982 178.793V180.036C300.982 180.765 301.11 181.385 301.365 181.896C301.626 182.408 301.988 182.798 302.452 183.068C302.916 183.333 303.458 183.466 304.078 183.466C304.481 183.466 304.848 183.409 305.179 183.295C305.511 183.177 305.797 183.002 306.039 182.77C306.28 182.538 306.465 182.251 306.593 181.911L308.602 182.273C308.441 182.865 308.153 183.383 307.736 183.828C307.324 184.268 306.806 184.612 306.181 184.858C305.56 185.099 304.852 185.22 304.057 185.22ZM315.177 185.213C314.297 185.213 313.511 184.988 312.819 184.538C312.133 184.084 311.593 183.437 311.2 182.599C310.812 181.757 310.618 180.746 310.618 179.567C310.618 178.388 310.814 177.379 311.207 176.541C311.605 175.703 312.149 175.062 312.841 174.616C313.532 174.171 314.316 173.949 315.192 173.949C315.869 173.949 316.413 174.062 316.825 174.29C317.242 174.512 317.564 174.773 317.791 175.071C318.023 175.369 318.203 175.632 318.331 175.859H318.459V170.455H320.582V185H318.508V183.303H318.331C318.203 183.535 318.018 183.8 317.777 184.098C317.54 184.396 317.213 184.657 316.797 184.879C316.38 185.102 315.84 185.213 315.177 185.213ZM315.646 183.402C316.257 183.402 316.773 183.241 317.194 182.919C317.621 182.592 317.943 182.14 318.16 181.562C318.383 180.985 318.494 180.312 318.494 179.545C318.494 178.788 318.385 178.125 318.167 177.557C317.95 176.989 317.63 176.546 317.209 176.229C316.787 175.911 316.266 175.753 315.646 175.753C315.007 175.753 314.474 175.919 314.048 176.25C313.622 176.581 313.3 177.034 313.082 177.607C312.869 178.179 312.763 178.826 312.763 179.545C312.763 180.275 312.872 180.93 313.089 181.513C313.307 182.095 313.629 182.557 314.055 182.898C314.486 183.234 315.016 183.402 315.646 183.402ZM323.613 185V174.091H325.737V185H323.613ZM324.686 172.408C324.316 172.408 323.999 172.285 323.734 172.038C323.473 171.787 323.343 171.489 323.343 171.143C323.343 170.793 323.473 170.495 323.734 170.249C323.999 169.998 324.316 169.872 324.686 169.872C325.055 169.872 325.37 169.998 325.63 170.249C325.895 170.495 326.028 170.793 326.028 171.143C326.028 171.489 325.895 171.787 325.63 172.038C325.37 172.285 325.055 172.408 324.686 172.408ZM331.768 185.241C331.077 185.241 330.452 185.114 329.893 184.858C329.335 184.598 328.892 184.221 328.565 183.729C328.243 183.236 328.082 182.633 328.082 181.918C328.082 181.302 328.201 180.795 328.437 180.398C328.674 180 328.994 179.685 329.396 179.453C329.799 179.221 330.248 179.046 330.746 178.928C331.243 178.809 331.749 178.719 332.265 178.658C332.919 178.582 333.449 178.52 333.856 178.473C334.264 178.421 334.559 178.338 334.744 178.224C334.929 178.111 335.021 177.926 335.021 177.67V177.621C335.021 177 334.846 176.52 334.496 176.179C334.15 175.838 333.634 175.668 332.947 175.668C332.232 175.668 331.669 175.826 331.257 176.143C330.85 176.456 330.568 176.804 330.412 177.188L328.416 176.733C328.653 176.07 328.998 175.535 329.453 175.128C329.912 174.716 330.44 174.418 331.037 174.233C331.633 174.044 332.261 173.949 332.919 173.949C333.354 173.949 333.816 174.001 334.304 174.105C334.796 174.205 335.256 174.389 335.682 174.659C336.113 174.929 336.465 175.315 336.74 175.817C337.015 176.314 337.152 176.96 337.152 177.756V185H335.078V183.509H334.993C334.855 183.783 334.649 184.053 334.375 184.318C334.1 184.583 333.747 184.804 333.317 184.979C332.886 185.154 332.37 185.241 331.768 185.241ZM332.23 183.537C332.817 183.537 333.319 183.421 333.736 183.189C334.157 182.957 334.477 182.654 334.694 182.28C334.917 181.901 335.028 181.496 335.028 181.065V179.659C334.952 179.735 334.806 179.806 334.588 179.872C334.375 179.934 334.131 179.988 333.856 180.036C333.582 180.078 333.314 180.118 333.054 180.156C332.793 180.189 332.576 180.218 332.4 180.241C331.988 180.294 331.612 180.381 331.271 180.504C330.935 180.627 330.665 180.805 330.461 181.037C330.263 181.264 330.163 181.567 330.163 181.946C330.163 182.472 330.357 182.869 330.746 183.139C331.134 183.404 331.629 183.537 332.23 183.537Z" fill="#659D84"/>
<path d="M454 263V164C436.938 209.51 401.934 237.875 308.312 226.765C201.363 214.073 163.938 226.333 139 263H454Z" fill="#ADE5C9"/>
<path d="M0 -10V89C17.0625 43.4902 52.0661 15.125 145.688 26.2353C252.637 38.9272 290.062 26.6667 315 -10H0Z" fill="#ADE5C9"/>
</g>
<defs>
<filter id="filter0_f_8285_14256" x="-137.7" y="6.3" width="380.4" height="383.4" filterUnits="userSpaceOnUse" color-interpolation-filters="sRGB">
<feFlood flood-opacity="0" result="BackgroundImageFix"/>
<feBlend mode="normal" in="SourceGraphic" in2="BackgroundImageFix" result="shape"/>
<feGaussianBlur stdDeviation="46.35" result="effect1_foregroundBlur_8285_14256"/>
</filter>
<filter id="filter1_f_8285_14256" x="111.3" y="-145.7" width="380.4" height="383.4" filterUnits="userSpaceOnUse" color-interpolation-filters="sRGB">
<feFlood flood-opacity="0" result="BackgroundImageFix"/>
<feBlend mode="normal" in="SourceGraphic" in2="BackgroundImageFix" result="shape"/>
<feGaussianBlur stdDeviation="46.35" result="effect1_foregroundBlur_8285_14256"/>
</filter>
<clipPath id="clip0_8285_14256">
<rect width="454" height="252" fill="white"/>
</clipPath>
</defs>
</svg>
