<svg width="160" height="160" viewBox="0 0 160 160" fill="none" xmlns="http://www.w3.org/2000/svg">
<path d="M35.4254 43V31.3636H37.8857V40.9716H42.8743V43H35.4254ZM48.4013 43.1705C47.5187 43.1705 46.7554 42.983 46.1115 42.608C45.4714 42.2292 44.977 41.7027 44.6286 41.0284C44.2801 40.3504 44.1058 39.5644 44.1058 38.6705C44.1058 37.7689 44.2801 36.9811 44.6286 36.3068C44.977 35.6288 45.4714 35.1023 46.1115 34.7273C46.7554 34.3485 47.5187 34.1591 48.4013 34.1591C49.2839 34.1591 50.0452 34.3485 50.6854 34.7273C51.3293 35.1023 51.8255 35.6288 52.174 36.3068C52.5225 36.9811 52.6967 37.7689 52.6967 38.6705C52.6967 39.5644 52.5225 40.3504 52.174 41.0284C51.8255 41.7027 51.3293 42.2292 50.6854 42.608C50.0452 42.983 49.2839 43.1705 48.4013 43.1705ZM48.4126 41.2955C48.8142 41.2955 49.1494 41.1818 49.4183 40.9545C49.6873 40.7235 49.8899 40.4091 50.0263 40.0114C50.1664 39.6136 50.2365 39.161 50.2365 38.6534C50.2365 38.1458 50.1664 37.6932 50.0263 37.2955C49.8899 36.8977 49.6873 36.5833 49.4183 36.3523C49.1494 36.1212 48.8142 36.0057 48.4126 36.0057C48.0073 36.0057 47.6664 36.1212 47.3899 36.3523C47.1172 36.5833 46.9107 36.8977 46.7706 37.2955C46.6342 37.6932 46.5661 38.1458 46.5661 38.6534C46.5661 39.161 46.6342 39.6136 46.7706 40.0114C46.9107 40.4091 47.1172 40.7235 47.3899 40.9545C47.6664 41.1818 48.0073 41.2955 48.4126 41.2955ZM58.2024 46.4545C57.4183 46.4545 56.746 46.3466 56.1854 46.1307C55.6286 45.9186 55.1854 45.6288 54.8558 45.2614C54.5263 44.8939 54.3123 44.4811 54.2138 44.0227L56.4524 43.7216C56.5206 43.8958 56.6286 44.0587 56.7763 44.2102C56.924 44.3617 57.1191 44.483 57.3615 44.5739C57.6077 44.6686 57.907 44.7159 58.2592 44.7159C58.7857 44.7159 59.2195 44.5871 59.5604 44.3295C59.9051 44.0758 60.0774 43.6496 60.0774 43.0511V41.4545H59.9751C59.8691 41.697 59.71 41.9261 59.4979 42.142C59.2857 42.358 59.013 42.5341 58.6797 42.6705C58.3464 42.8068 57.9486 42.875 57.4865 42.875C56.8312 42.875 56.2346 42.7235 55.6967 42.4205C55.1626 42.1136 54.7365 41.6458 54.4183 41.017C54.1039 40.3845 53.9467 39.5852 53.9467 38.6193C53.9467 37.6307 54.1077 36.8049 54.4297 36.142C54.7517 35.4792 55.1797 34.983 55.7138 34.6534C56.2517 34.3239 56.8407 34.1591 57.4808 34.1591C57.9695 34.1591 58.3786 34.2424 58.7081 34.4091C59.0376 34.572 59.3028 34.7765 59.5036 35.0227C59.7081 35.2652 59.8653 35.5038 59.9751 35.7386H60.0661V34.2727H62.4695V43.0852C62.4695 43.8277 62.2876 44.4489 61.924 44.9489C61.5604 45.4489 61.0566 45.8239 60.4126 46.0739C59.7725 46.3277 59.0357 46.4545 58.2024 46.4545ZM58.2536 41.0568C58.6437 41.0568 58.9732 40.9602 59.2422 40.767C59.5149 40.5701 59.7232 40.2898 59.8672 39.9261C60.0149 39.5587 60.0888 39.1193 60.0888 38.608C60.0888 38.0966 60.0168 37.6534 59.8729 37.2784C59.7289 36.8996 59.5206 36.6061 59.2479 36.3977C58.9751 36.1894 58.6437 36.0852 58.2536 36.0852C57.8558 36.0852 57.5206 36.1932 57.2479 36.4091C56.9751 36.6212 56.7687 36.9167 56.6286 37.2955C56.4884 37.6742 56.4183 38.1117 56.4183 38.608C56.4183 39.1117 56.4884 39.5473 56.6286 39.9148C56.7725 40.2784 56.9789 40.5606 57.2479 40.7614C57.5206 40.9583 57.8558 41.0568 58.2536 41.0568ZM68.3388 43.1705C67.4562 43.1705 66.6929 42.983 66.049 42.608C65.4089 42.2292 64.9145 41.7027 64.5661 41.0284C64.2176 40.3504 64.0433 39.5644 64.0433 38.6705C64.0433 37.7689 64.2176 36.9811 64.5661 36.3068C64.9145 35.6288 65.4089 35.1023 66.049 34.7273C66.6929 34.3485 67.4562 34.1591 68.3388 34.1591C69.2214 34.1591 69.9827 34.3485 70.6229 34.7273C71.2668 35.1023 71.763 35.6288 72.1115 36.3068C72.46 36.9811 72.6342 37.7689 72.6342 38.6705C72.6342 39.5644 72.46 40.3504 72.1115 41.0284C71.763 41.7027 71.2668 42.2292 70.6229 42.608C69.9827 42.983 69.2214 43.1705 68.3388 43.1705ZM68.3501 41.2955C68.7517 41.2955 69.0869 41.1818 69.3558 40.9545C69.6248 40.7235 69.8274 40.4091 69.9638 40.0114C70.1039 39.6136 70.174 39.161 70.174 38.6534C70.174 38.1458 70.1039 37.6932 69.9638 37.2955C69.8274 36.8977 69.6248 36.5833 69.3558 36.3523C69.0869 36.1212 68.7517 36.0057 68.3501 36.0057C67.9448 36.0057 67.6039 36.1212 67.3274 36.3523C67.0547 36.5833 66.8482 36.8977 66.7081 37.2955C66.5717 37.6932 66.5036 38.1458 66.5036 38.6534C66.5036 39.161 66.5717 39.6136 66.7081 40.0114C66.8482 40.4091 67.0547 40.7235 67.3274 40.9545C67.6039 41.1818 67.9448 41.2955 68.3501 41.2955ZM77.9567 43V31.3636H80.3771V35.7386H80.451C80.5571 35.5038 80.7105 35.2652 80.9112 35.0227C81.1158 34.7765 81.3809 34.572 81.7067 34.4091C82.0362 34.2424 82.4453 34.1591 82.9339 34.1591C83.5703 34.1591 84.1574 34.3258 84.6953 34.6591C85.2332 34.9886 85.6631 35.4867 85.9851 36.1534C86.3071 36.8163 86.468 37.6477 86.468 38.6477C86.468 39.6212 86.3108 40.4432 85.9964 41.1136C85.6858 41.7803 85.2616 42.286 84.7237 42.6307C84.1896 42.9716 83.5911 43.142 82.9283 43.142C82.4586 43.142 82.0589 43.0644 81.7294 42.9091C81.4036 42.7538 81.1366 42.5587 80.9283 42.3239C80.7199 42.0852 80.5608 41.8447 80.451 41.6023H80.343V43H77.9567ZM80.326 38.6364C80.326 39.1553 80.398 39.608 80.5419 39.9943C80.6858 40.3807 80.8942 40.6818 81.1669 40.8977C81.4396 41.1098 81.7711 41.2159 82.1612 41.2159C82.5552 41.2159 82.8885 41.108 83.1612 40.892C83.4339 40.6723 83.6404 40.3693 83.7805 39.983C83.9245 39.5928 83.9964 39.1439 83.9964 38.6364C83.9964 38.1326 83.9264 37.6894 83.7862 37.3068C83.6461 36.9242 83.4396 36.625 83.1669 36.4091C82.8942 36.1932 82.5589 36.0852 82.1612 36.0852C81.7673 36.0852 81.4339 36.1894 81.1612 36.3977C80.8923 36.6061 80.6858 36.9015 80.5419 37.2841C80.398 37.6667 80.326 38.1174 80.326 38.6364ZM92.0604 43.1705C91.1626 43.1705 90.3899 42.9886 89.7422 42.625C89.0982 42.2576 88.602 41.7386 88.2536 41.0682C87.9051 40.3939 87.7308 39.5966 87.7308 38.6761C87.7308 37.7784 87.9051 36.9905 88.2536 36.3125C88.602 35.6345 89.0926 35.1061 89.7251 34.7273C90.3615 34.3485 91.1077 34.1591 91.9638 34.1591C92.5395 34.1591 93.0755 34.2519 93.5717 34.4375C94.0717 34.6193 94.5073 34.8939 94.8786 35.2614C95.2536 35.6288 95.5452 36.0909 95.7536 36.6477C95.9619 37.2008 96.0661 37.8485 96.0661 38.5909V39.2557H88.6967V37.7557H93.7876C93.7876 37.4072 93.7119 37.0985 93.5604 36.8295C93.4089 36.5606 93.1986 36.3504 92.9297 36.1989C92.6645 36.0436 92.3558 35.9659 92.0036 35.9659C91.6361 35.9659 91.3104 36.0511 91.0263 36.2216C90.746 36.3883 90.5263 36.6136 90.3672 36.8977C90.2081 37.178 90.1267 37.4905 90.1229 37.8352V39.2614C90.1229 39.6932 90.2024 40.0663 90.3615 40.3807C90.5244 40.6951 90.7536 40.9375 91.049 41.108C91.3445 41.2784 91.6948 41.3636 92.1001 41.3636C92.3691 41.3636 92.6153 41.3258 92.8388 41.25C93.0623 41.1742 93.2536 41.0606 93.4126 40.9091C93.5717 40.7576 93.6929 40.572 93.7763 40.3523L96.0149 40.5C95.9013 41.0379 95.6683 41.5076 95.3161 41.9091C94.9676 42.3068 94.5168 42.6174 93.9638 42.8409C93.4145 43.0606 92.7801 43.1705 92.0604 43.1705ZM100.066 31.3636V43H97.6456V31.3636H100.066ZM107.602 39.2841V34.2727H110.022V43H107.698V41.4148H107.607C107.41 41.9261 107.083 42.3371 106.624 42.6477C106.17 42.9583 105.615 43.1136 104.96 43.1136C104.376 43.1136 103.863 42.9811 103.42 42.7159C102.977 42.4508 102.63 42.0739 102.38 41.5852C102.134 41.0966 102.009 40.5114 102.005 39.8295V34.2727H104.425V39.3977C104.429 39.9129 104.567 40.3201 104.84 40.6193C105.113 40.9186 105.478 41.0682 105.937 41.0682C106.228 41.0682 106.501 41.0019 106.755 40.8693C107.009 40.733 107.213 40.5322 107.369 40.267C107.528 40.0019 107.605 39.6742 107.602 39.2841ZM111.958 43V34.2727H114.265V35.8125H114.367C114.549 35.3011 114.852 34.8977 115.276 34.6023C115.701 34.3068 116.208 34.1591 116.799 34.1591C117.397 34.1591 117.907 34.3087 118.327 34.608C118.748 34.9034 119.028 35.3049 119.168 35.8125H119.259C119.437 35.3125 119.759 34.9129 120.225 34.6136C120.695 34.3106 121.25 34.1591 121.89 34.1591C122.704 34.1591 123.365 34.4186 123.873 34.9375C124.384 35.4527 124.64 36.1837 124.64 37.1307V43H122.225V37.608C122.225 37.1231 122.096 36.7595 121.839 36.517C121.581 36.2746 121.259 36.1534 120.873 36.1534C120.433 36.1534 120.091 36.2936 119.844 36.5739C119.598 36.8504 119.475 37.2159 119.475 37.6705V43H117.129V37.5568C117.129 37.1288 117.005 36.7879 116.759 36.5341C116.517 36.2803 116.197 36.1534 115.799 36.1534C115.53 36.1534 115.288 36.2216 115.072 36.358C114.86 36.4905 114.691 36.678 114.566 36.9205C114.441 37.1591 114.379 37.4394 114.379 37.7614V43H111.958ZM53.3111 56.2727V58.0909H48.0554V56.2727H53.3111ZM49.2486 54.1818H51.669V62.3182C51.669 62.5417 51.7031 62.7159 51.7713 62.8409C51.8395 62.9621 51.9342 63.0473 52.0554 63.0966C52.1804 63.1458 52.3243 63.1705 52.4872 63.1705C52.6009 63.1705 52.7145 63.161 52.8281 63.142C52.9418 63.1193 53.0289 63.1023 53.0895 63.0909L53.4702 64.892C53.349 64.9299 53.1785 64.9735 52.9588 65.0227C52.7391 65.0758 52.4721 65.108 52.1577 65.1193C51.5743 65.142 51.063 65.0644 50.6236 64.8864C50.188 64.7083 49.849 64.4318 49.6065 64.0568C49.3641 63.6818 49.2448 63.2083 49.2486 62.6364V54.1818ZM58.7713 65.1705C57.8736 65.1705 57.1009 64.9886 56.4531 64.625C55.8092 64.2576 55.313 63.7386 54.9645 63.0682C54.616 62.3939 54.4418 61.5966 54.4418 60.6761C54.4418 59.7784 54.616 58.9905 54.9645 58.3125C55.313 57.6345 55.8035 57.1061 56.4361 56.7273C57.0724 56.3485 57.8187 56.1591 58.6747 56.1591C59.2505 56.1591 59.7865 56.2519 60.2827 56.4375C60.7827 56.6193 61.2183 56.8939 61.5895 57.2614C61.9645 57.6288 62.2562 58.0909 62.4645 58.6477C62.6728 59.2008 62.777 59.8485 62.777 60.5909V61.2557H55.4077V59.7557H60.4986C60.4986 59.4072 60.4228 59.0985 60.2713 58.8295C60.1198 58.5606 59.9096 58.3504 59.6406 58.1989C59.3755 58.0436 59.0668 57.9659 58.7145 57.9659C58.3471 57.9659 58.0213 58.0511 57.7372 58.2216C57.4569 58.3883 57.2372 58.6136 57.0781 58.8977C56.919 59.178 56.8376 59.4905 56.8338 59.8352V61.2614C56.8338 61.6932 56.9134 62.0663 57.0724 62.3807C57.2353 62.6951 57.4645 62.9375 57.7599 63.108C58.0554 63.2784 58.4058 63.3636 58.8111 63.3636C59.08 63.3636 59.3262 63.3258 59.5497 63.25C59.7732 63.1742 59.9645 63.0606 60.1236 62.9091C60.2827 62.7576 60.4039 62.572 60.4872 62.3523L62.7259 62.5C62.6122 63.0379 62.3793 63.5076 62.027 63.9091C61.6785 64.3068 61.2277 64.6174 60.6747 64.8409C60.1255 65.0606 59.491 65.1705 58.7713 65.1705ZM64.3565 65V56.2727H66.7031V57.7955H66.794C66.9531 57.2538 67.2202 56.8447 67.5952 56.5682C67.9702 56.2879 68.402 56.1477 68.8906 56.1477C69.0118 56.1477 69.1425 56.1553 69.2827 56.1705C69.4228 56.1856 69.5459 56.2064 69.652 56.233V58.3807C69.5384 58.3466 69.3812 58.3163 69.1804 58.2898C68.9796 58.2633 68.7959 58.25 68.6293 58.25C68.2732 58.25 67.955 58.3277 67.6747 58.483C67.3982 58.6345 67.1785 58.8466 67.0156 59.1193C66.8565 59.392 66.777 59.7064 66.777 60.0625V65H64.3565ZM78.1648 58.7614L75.9489 58.8977C75.911 58.7083 75.8295 58.5379 75.7045 58.3864C75.5795 58.2311 75.4148 58.108 75.2102 58.017C75.0095 57.9223 74.7689 57.875 74.4886 57.875C74.1136 57.875 73.7973 57.9545 73.5398 58.1136C73.2822 58.2689 73.1534 58.4773 73.1534 58.7386C73.1534 58.947 73.2367 59.1231 73.4034 59.267C73.5701 59.411 73.8561 59.5265 74.2614 59.6136L75.8409 59.9318C76.6894 60.1061 77.322 60.3864 77.7386 60.7727C78.1553 61.1591 78.3636 61.6667 78.3636 62.2955C78.3636 62.8674 78.1951 63.3693 77.858 63.8011C77.5246 64.233 77.0663 64.5701 76.483 64.8125C75.9034 65.0511 75.2348 65.1705 74.4773 65.1705C73.322 65.1705 72.4015 64.9299 71.7159 64.4489C71.0341 63.964 70.6345 63.3049 70.517 62.4716L72.8977 62.3466C72.9697 62.6989 73.1439 62.9678 73.4205 63.1534C73.697 63.3352 74.0511 63.4261 74.483 63.4261C74.9072 63.4261 75.2481 63.3447 75.5057 63.1818C75.767 63.0152 75.8996 62.8011 75.9034 62.5398C75.8996 62.3201 75.8068 62.1402 75.625 62C75.4432 61.8561 75.1629 61.7462 74.7841 61.6705L73.2727 61.3693C72.4205 61.1989 71.786 60.9034 71.3693 60.483C70.9564 60.0625 70.75 59.5265 70.75 58.875C70.75 58.3144 70.9015 57.8314 71.2045 57.4261C71.5114 57.0208 71.9413 56.7083 72.4943 56.4886C73.0511 56.2689 73.7027 56.1591 74.4489 56.1591C75.5511 56.1591 76.4186 56.392 77.0511 56.858C77.6875 57.3239 78.0587 57.9583 78.1648 58.7614ZM83.8651 65.1705C82.9673 65.1705 82.1946 64.9886 81.5469 64.625C80.9029 64.2576 80.4067 63.7386 80.0582 63.0682C79.7098 62.3939 79.5355 61.5966 79.5355 60.6761C79.5355 59.7784 79.7098 58.9905 80.0582 58.3125C80.4067 57.6345 80.8973 57.1061 81.5298 56.7273C82.1662 56.3485 82.9124 56.1591 83.7685 56.1591C84.3442 56.1591 84.8802 56.2519 85.3764 56.4375C85.8764 56.6193 86.312 56.8939 86.6832 57.2614C87.0582 57.6288 87.3499 58.0909 87.5582 58.6477C87.7666 59.2008 87.8707 59.8485 87.8707 60.5909V61.2557H80.5014V59.7557H85.5923C85.5923 59.4072 85.5166 59.0985 85.3651 58.8295C85.2135 58.5606 85.0033 58.3504 84.7344 58.1989C84.4692 58.0436 84.1605 57.9659 83.8082 57.9659C83.4408 57.9659 83.1151 58.0511 82.831 58.2216C82.5507 58.3883 82.331 58.6136 82.1719 58.8977C82.0128 59.178 81.9313 59.4905 81.9276 59.8352V61.2614C81.9276 61.6932 82.0071 62.0663 82.1662 62.3807C82.3291 62.6951 82.5582 62.9375 82.8537 63.108C83.1491 63.2784 83.4995 63.3636 83.9048 63.3636C84.1738 63.3636 84.42 63.3258 84.6435 63.25C84.867 63.1742 85.0582 63.0606 85.2173 62.9091C85.3764 62.7576 85.4976 62.572 85.581 62.3523L87.8196 62.5C87.706 63.0379 87.473 63.5076 87.1207 63.9091C86.7723 64.3068 86.3215 64.6174 85.7685 64.8409C85.2192 65.0606 84.5848 65.1705 83.8651 65.1705ZM92.6662 65.142C92.0033 65.142 91.4029 64.9716 90.8651 64.6307C90.331 64.286 89.9067 63.7803 89.5923 63.1136C89.2817 62.4432 89.1264 61.6212 89.1264 60.6477C89.1264 59.6477 89.2874 58.8163 89.6094 58.1534C89.9313 57.4867 90.3594 56.9886 90.8935 56.6591C91.4313 56.3258 92.0204 56.1591 92.6605 56.1591C93.1491 56.1591 93.5563 56.2424 93.8821 56.4091C94.2116 56.572 94.4768 56.7765 94.6776 57.0227C94.8821 57.2652 95.0374 57.5038 95.1435 57.7386H95.2173V53.3636H97.6321V65H95.2457V63.6023H95.1435C95.0298 63.8447 94.8688 64.0852 94.6605 64.3239C94.456 64.5587 94.1889 64.7538 93.8594 64.9091C93.5336 65.0644 93.1359 65.142 92.6662 65.142ZM93.4332 63.2159C93.8234 63.2159 94.1529 63.1098 94.4219 62.8977C94.6946 62.6818 94.9029 62.3807 95.0469 61.9943C95.1946 61.608 95.2685 61.1553 95.2685 60.6364C95.2685 60.1174 95.1965 59.6667 95.0526 59.2841C94.9086 58.9015 94.7003 58.6061 94.4276 58.3977C94.1548 58.1894 93.8234 58.0852 93.4332 58.0852C93.0355 58.0852 92.7003 58.1932 92.4276 58.4091C92.1548 58.625 91.9484 58.9242 91.8082 59.3068C91.6681 59.6894 91.598 60.1326 91.598 60.6364C91.598 61.1439 91.6681 61.5928 91.8082 61.983C91.9522 62.3693 92.1586 62.6723 92.4276 62.892C92.7003 63.108 93.0355 63.2159 93.4332 63.2159ZM99.6222 65V56.2727H102.043V65H99.6222ZM100.838 55.1477C100.478 55.1477 100.17 55.0284 99.9119 54.7898C99.6581 54.5473 99.5312 54.2576 99.5312 53.9205C99.5312 53.5871 99.6581 53.3011 99.9119 53.0625C100.17 52.8201 100.478 52.6989 100.838 52.6989C101.198 52.6989 101.505 52.8201 101.759 53.0625C102.016 53.3011 102.145 53.5871 102.145 53.9205C102.145 54.2576 102.016 54.5473 101.759 54.7898C101.505 55.0284 101.198 55.1477 100.838 55.1477ZM106.47 65.1648C105.913 65.1648 105.417 65.0682 104.982 64.875C104.546 64.678 104.201 64.3883 103.947 64.0057C103.697 63.6193 103.572 63.1383 103.572 62.5625C103.572 62.0777 103.661 61.6705 103.839 61.3409C104.018 61.0114 104.26 60.7462 104.567 60.5455C104.874 60.3447 105.222 60.1932 105.612 60.0909C106.006 59.9886 106.419 59.9167 106.851 59.875C107.358 59.822 107.768 59.7727 108.078 59.7273C108.389 59.678 108.614 59.6061 108.754 59.5114C108.894 59.4167 108.964 59.2765 108.964 59.0909V59.0568C108.964 58.697 108.851 58.4186 108.624 58.2216C108.4 58.0246 108.082 57.9261 107.669 57.9261C107.233 57.9261 106.887 58.0227 106.629 58.2159C106.372 58.4053 106.201 58.6439 106.118 58.9318L103.879 58.75C103.993 58.2197 104.216 57.7614 104.55 57.375C104.883 56.9848 105.313 56.6856 105.839 56.4773C106.37 56.2652 106.983 56.1591 107.68 56.1591C108.165 56.1591 108.629 56.2159 109.072 56.3295C109.519 56.4432 109.915 56.6193 110.26 56.858C110.608 57.0966 110.883 57.4034 111.084 57.7784C111.285 58.1496 111.385 58.5947 111.385 59.1136V65H109.089V63.7898H109.021C108.881 64.0625 108.694 64.303 108.459 64.5114C108.224 64.7159 107.942 64.8769 107.612 64.9943C107.283 65.108 106.902 65.1648 106.47 65.1648ZM107.163 63.4943C107.519 63.4943 107.834 63.4242 108.107 63.2841C108.379 63.1402 108.593 62.947 108.749 62.7045C108.904 62.4621 108.982 62.1875 108.982 61.8807V60.9545C108.906 61.0038 108.802 61.0492 108.669 61.0909C108.54 61.1288 108.394 61.1648 108.232 61.1989C108.069 61.2292 107.906 61.2576 107.743 61.2841C107.58 61.3068 107.432 61.3277 107.3 61.3466C107.016 61.3883 106.768 61.4545 106.555 61.5455C106.343 61.6364 106.179 61.7595 106.061 61.9148C105.944 62.0663 105.885 62.2557 105.885 62.483C105.885 62.8125 106.004 63.0644 106.243 63.2386C106.485 63.4091 106.792 63.4943 107.163 63.4943Z" fill="#3C9B71"/>
</svg>
