<svg width="56" height="56" viewBox="0 0 56 56" fill="none" xmlns="http://www.w3.org/2000/svg">
<path d="M34.3141 10.0636H21.6861C20.1595 10.063 18.6478 10.3632 17.2373 10.947C15.8268 11.5308 14.5452 12.3869 13.4656 13.4662C12.3861 14.5455 11.5298 15.827 10.9457 17.2374C10.3616 18.6477 10.0611 20.1594 10.0614 21.6859V34.3139C10.0608 35.8407 10.3611 37.3526 10.945 38.7632C11.529 40.1739 12.3852 41.4556 13.4648 42.5352C14.5444 43.6148 15.8261 44.471 17.2368 45.055C18.6474 45.639 20.1593 45.9392 21.6861 45.9386H34.3141C35.8408 45.9392 37.3527 45.639 38.7634 45.055C40.174 44.471 41.4557 43.6148 42.5353 42.5352C43.6149 41.4556 44.4711 40.1739 45.0551 38.7632C45.6391 37.3526 45.9394 35.8407 45.9387 34.3139V21.6859C45.9394 20.1592 45.6391 18.6473 45.0551 17.2367C44.4711 15.826 43.6149 14.5443 42.5353 13.4647C41.4557 12.3851 40.174 11.5289 38.7634 10.9449C37.3527 10.3609 35.8408 10.0607 34.3141 10.0613V10.0636Z" stroke="#347357" stroke-width="2"/>
<path d="M45.7474 36.372H49.525C50.1594 36.372 50.7677 36.1201 51.2162 35.6715C51.6647 35.223 51.9167 34.6147 51.9167 33.9804V22.022C51.9167 21.3877 51.6647 20.7794 51.2162 20.3309C50.7677 19.8823 50.1594 19.6304 49.525 19.6304H45.745M10.255 36.372H6.47504C6.16096 36.372 5.84996 36.3102 5.55979 36.19C5.26962 36.0698 5.00596 35.8936 4.78388 35.6715C4.56179 35.4494 4.38562 35.1858 4.26543 34.8956C4.14524 34.6055 4.08337 34.2944 4.08337 33.9804V22.022C4.08337 21.3877 4.33535 20.7794 4.78388 20.3309C5.2324 19.8823 5.84073 19.6304 6.47504 19.6304H10.255" stroke="#347357" stroke-width="2"/>
<path d="M6.45166 19.6304V10.0637M49.525 19.6304L49.5017 10.0637M20.8017 20.4471V26.7424M35.1517 20.4471V26.7424M23.2167 36.3721C23.8434 35.7413 24.5887 35.2408 25.4096 34.8993C26.2305 34.5577 27.1109 34.3819 28 34.3819C28.8891 34.3819 29.7695 34.5577 30.5904 34.8993C31.4113 35.2408 32.1566 35.7413 32.7833 36.3721" stroke="#347357" stroke-width="2" stroke-linecap="round" stroke-linejoin="round"/>
</svg>
